<svg width="42px" xmlns="http://www.w3.org/2000/svg" height="42px" viewBox="0 0 96 96" xmlns:xlink="http://www.w3.org/1999/xlink">
<path d="m72,38.994v-6c0-1.659-1.341-3-3-3h-66c-1.659,0-3,1.341-3,3v42.003c0,.54 .183,1.017 .429,1.455 2.091,11.124 11.841,19.548 23.571,19.548h24c7.563,0 14.268-3.531 18.663-9h5.337c13.254,0 24-10.749 24-24.003 0-13.257-10.746-24.003-24-24.003zm0,36.003v-24.003c6.627,0 12,5.373 12,12.003 0,6.627-5.373,12-12,12zm-56.406-49.485c-.447,.81-.396,1.479 .456,1.479 .846,0 2.007-.672 2.298-1.473 2.979-7.767-12.666-14.082-3.213-23.661 .969-.993 1.362-1.851 .504-1.857-.861-.009-2.628,.81-3.558,1.776-9.108,9.357 7.749,15.933 3.513,23.736zm11.331,.036c-.111,.774 .363,1.443 1.206,1.443 .837,0 1.65-.669 1.734-1.437 .663-5.562-3.783-10.665-1.113-15.477 .042-.87-.981-1.734-2.307-1.851-1.323-.12-2.502,.537-2.547,1.401-.321,6.276 3.81,10.281 3.027,15.921zm13.281,1.443c.837,0 1.5-.669 1.659-1.41 1.521-7.188 13.944-9.402 4.578-22.239-1.002-1.326-2.781-2.544-3.642-2.556-.864-.015-.939,1.17-.366,2.481 9.321,8.796 .372,15.108-3.591,22.314-.132,.741 .528,1.41 1.362,1.41zm12.081,0c.84,0 1.404-.675 1.647-1.464 2.28-7.629 28.017-12.561 6.375-23.061-2.256-1.068-5.184-1.962-5.823-1.926-.651,.045 .882,1.152 2.808,2.361 17.691,11.595 1.206,8.097-6.357,22.65-.246,.765 .513,1.44 1.35,1.44z"/>
</svg>
