<svg width="120" height="120" viewBox="0 0 120 120" fill="currentColor" xmlns="http://www.w3.org/2000/svg">
    <path d="M36.55 19.55C34.55 19.8 30.7 20.75 28.05 21.65C16.6 25.55 8.30001 32.5 3.45001 42.25C-1.99999 53.2 -0.899992 66.5 6.30001 76.65C7.25001 77.95 8.00001 79.4 8.00001 79.9C7.95001 80.35 6.85001 85.15 5.55001 90.5C4.20001 95.85 3.25001 100.3 3.45001 100.4C3.65001 100.45 8.45001 98.4 14.1 95.75L24.45 91.05L26.6 91.8C36.5 95.35 49.45 95.5 59.3 92.25C62.15 91.25 68.1 88.35 70.2 86.85C71.55 85.9 72.4 85.8 80.95 85.8C90.1 85.75 90.35 85.7 95.55 84.05L100.8 82.4L107.95 86C111.9 87.95 115.25 89.45 115.4 89.3C115.55 89.15 114.95 86.6 114.1 83.65C111.6 74.9 111.6 74.9 113.65 72.4C117.45 67.75 120 60.9 120 55.5C119.95 48.2 117.2 42.15 111 36C107.5 32.45 105.9 31.3 102 29.35C95 25.9 90.65 24.9 82.5 24.8C78.6 24.8 74.35 25.05 72.45 25.4L69.15 26.1L65.7 24.35C60.25 21.6 54.4 20 48.25 19.45C42.05 18.95 41.7 18.95 36.55 19.55ZM51.5 25.3C60 26.9 66.95 30.45 72.4 35.95C76.35 40 78.6 43.55 80.35 48.55C81.5 51.9 81.6 52.75 81.4 58.25C81.2 63.6 81 64.65 79.6 68C74.2 80.65 61.45 88.9 45.95 89.85C39.7 90.2 33.2 89.2 27.75 87.05L24.25 85.65L17.35 89.15C13.55 91.05 10.35 92.5 10.2 92.35C10.1 92.25 10.9 89.05 12 85.2L14 78.25L13 77C8.20001 71.1 5.95001 65.65 5.65001 59C5.30001 53 6.00001 49.6 8.60001 44.45C12.1 37.45 19.15 31.05 27 27.75C34.2 24.7 43.6 23.8 51.5 25.3ZM90.25 30.95C98.2 32.6 105.05 36.55 109.6 42.25C115.05 49 115.95 57.75 112 65.55C111.45 66.55 109.95 68.7 108.6 70.3L106.15 73.2L107.55 77.35C108.3 79.65 108.85 81.5 108.75 81.5C108.7 81.5 106.7 80.5 104.35 79.25L100.1 77L97.8 77.95C96.55 78.5 94.35 79.3 92.9 79.75C89.9 80.65 80.4 81.6 78.7 81.2C77.6 80.9 77.65 80.85 79.55 78.35C85 71.15 87.25 64.25 86.9 55.4C86.55 46.95 84.1 40.9 78.05 33.8C76.25 31.65 75.7 30.7 76.15 30.4C77.25 29.7 85.7 30 90.25 30.95Z"/>
    <circle cx="60" cy="57" r="5"/>
    <circle cx="44" cy="57" r="5"/>
    <circle cx="27" cy="57" r="5"/>
</svg>
