<svg width="100%" height="100%" viewBox="0 0 25 25" fill="currentColor" xmlns="http://www.w3.org/2000/svg">
<path d="M19.7917 5.20833H18.75V4.16667C18.75 3.8904 18.6403 3.62545 18.4449 3.4301C18.2496 3.23475 17.9846 3.125 17.7083 3.125H5.20833C4.93207 3.125 4.66711 3.23475 4.47176 3.4301C4.27641 3.62545 4.16667 3.8904 4.16667 4.16667V13.5417C4.16667 14.6467 4.60565 15.7065 5.38705 16.4879C6.16846 17.2693 7.22826 17.7083 8.33333 17.7083H14.5833C16.5187 17.7083 18.1365 16.376 18.6021 14.5833H19.7917C20.6205 14.5833 21.4153 14.2541 22.0014 13.668C22.5874 13.082 22.9167 12.2871 22.9167 11.4583V8.33333C22.9167 7.50453 22.5874 6.70968 22.0014 6.12362C21.4153 5.53757 20.6205 5.20833 19.7917 5.20833ZM20.8333 11.4583C20.8333 11.7346 20.7236 11.9996 20.5282 12.1949C20.3329 12.3903 20.0679 12.5 19.7917 12.5H18.75V7.29167H19.7917C20.0679 7.29167 20.3329 7.40141 20.5282 7.59676C20.7236 7.79211 20.8333 8.05707 20.8333 8.33333V11.4583ZM18.75 19.7917H3.125C3.125 21.5146 4.52708 22.9167 6.25 22.9167H17.7083C19.4312 22.9167 20.8333 21.5146 20.8333 19.7917H18.75Z" fill="#323232"/>
</svg>
