<svg width="120" height="120" viewBox="0 0 120 120" fill="currentColor" xmlns="http://www.w3.org/2000/svg">
        <path d="M40.7 4.5C39.2 5.1 38.85 5.75 38.15 9.15C37.15 14 34.15 17.85 29.65 20.2C26.55 21.75 26.25 22.8 27.25 28.55C29.7 43.35 37.05 56.7 47.4 65.15C51.85 68.8 58.3 72.5 60.15 72.5C63.05 72.5 72.3 66.25 77.3 60.95C85.35 52.45 91.05 40.15 92.95 27.15C93.65 22.6 93.2 21.5 89.75 19.55C85.2 17 81.5 11.65 81.5 7.65C81.5 7 80.95 5.9 80.25 5.25L79.05 4L60.4 4.05C50.15 4.05 41.25 4.25 40.7 4.5ZM78.2 9.55C78.95 14.25 82.8 19.55 87.35 22.1C88.8 22.95 90 23.8 90 24.05C90 24.25 89.55 26.7 89.05 29.4C86.8 40.9 82.1 50.6 74.95 58.25C71.4 62 65.85 66.35 62.3 68.1L60 69.2L57.9 68C45.95 61.4 37.6 51.2 33.1 37.65C31.4 32.6 29.75 24.8 30.25 24C30.45 23.7 31.4 23.05 32.4 22.55C36.5 20.45 40.5 14.95 41.55 10.1L42.05 7.5H59.95H77.85L78.2 9.55Z" />
        <path d="M51.15 10.85L45 11.05L43 15.2C41.35 18.7 40.4 20 37.2 22.85L33.4 26.35L34.05 29.55C34.8 33.5 35.3 34.5 36.45 34.5C38.1 34.5 38.45 33.45 37.8 30.55L37.2 27.85L40.75 24.3C43.3 21.8 44.8 19.75 45.95 17.35L47.55 14H60.05H72.5L73.7 16.6C75.3 20.2 77.5 23.1 80.35 25.35C82.7 27.2 82.75 27.3 82.4 29.25C81.8 32.6 81.95 33.85 82.85 34.25C83.45 34.45 84.05 34.2 84.55 33.55C85.45 32.45 86.6 26.9 86.2 25.8C86.05 25.45 84.95 24.4 83.75 23.55C80.75 21.4 78.3 18.3 76.55 14.4C75.7 12.6 74.7 11 74.25 10.8C73.45 10.5 64.2 10.55 51.15 10.85Z" />
        <path d="M64.5 33.25L58.95 41.55L57.6 40.55C56.85 40.05 55.45 38.8 54.55 37.8C53.55 36.8 52.3 36 51.7 36C50.55 36 49.85 37.05 50.3 38.2C50.75 39.4 58.4 46 59.4 46C60.05 46 62.05 43.4 66.4 36.7C69.75 31.6 72.5 27.15 72.5 26.8C72.5 26 71.45 25 70.65 25C70.3 25 67.55 28.7 64.5 33.25Z" />
        <path d="M38.1 39.1C37.2 40 37.35 40.7 39.05 44.15C41.6 49.25 45.4 54.3 49.5 58.15C53.05 61.5 58.95 65.5 60.3 65.5C61.5 65.5 68.6 60.4 71.65 57.4C76.8 52.2 82.8 42.45 82.4 39.8C82.3 39.05 81.9 38.75 81.05 38.75C80.05 38.75 79.5 39.4 77.8 42.75C73.95 50.3 69.25 55.8 63.2 59.9L60.1 61.95L56.95 59.75C50.55 55.3 44.65 48.35 41.8 41.85C41.1 40.35 40.2 39 39.75 38.8C38.7 38.4 38.8 38.4 38.1 39.1Z" />
        <path d="M1.24999 60.75L-7.62939e-06 61.95V85.95V109.9L1.29999 111.45L2.59999 113H11.55C20.45 113 20.55 113 21.75 111.75C22.45 111.1 23 109.95 23 109.25C23 108.55 23.25 108 23.6 108C23.9 108 28.95 109.8 34.8 112C43.45 115.25 45.95 116 48.25 116C50.6 116 61.75 114.5 83.3 111.3C90.65 110.2 91.8 109.5 106.1 96.55C119.7 84.3 120.45 83.4 119.85 79.75C119.45 77.35 118.15 75.6 115.85 74.4C112.25 72.6 111.15 73.05 97.85 81.95C86.05 89.8 85.7 90 83.15 90C80.6 90 80.5 89.95 80.5 88.6C80.45 85.05 76.75 80.5 73.15 79.55C72.1 79.3 65.75 78.6 59 78C52.25 77.45 46.3 76.85 45.75 76.7C45.2 76.55 41.7 74.9 38 73C32 70 30.2 69.35 24.15 68.2C23.1 68 23 67.7 23 64.8C23 61.9 22.85 61.45 21.7 60.55C20.45 59.6 19.7 59.5 11.4 59.5C2.54999 59.5 2.44999 59.5 1.24999 60.75ZM19.5 69.4C19.5 76.2 19.95 77.75 21.8 77.4C22.55 77.3 22.8 76.75 22.9 74.75C23 73.35 23.25 72.1 23.45 71.85C24.3 71 29.7 72.8 36.8 76.35L44.35 80.15L57.55 81.35C64.8 82 71.25 82.65 71.85 82.75C73.75 83.2 76.45 85.9 76.8 87.8C76.95 88.75 77.05 89.65 76.9 89.75C76.8 89.85 69.2 90.45 60 91L43.3 92L41.9 91C40.15 89.75 39.2 89.75 38.5 91C38.05 91.9 38.2 92.25 39.45 93.45C40.3 94.25 41.65 95 42.5 95.15C43.9 95.45 51.1 95.1 67.25 94C71.1 93.75 77.1 93.5 80.55 93.5H86.9L99.2 85.25C107.05 80 111.95 77 112.8 77C115.2 77 117.1 79.9 116.2 82.2C115.8 83.3 92.25 104.5 90 105.85C87.65 107.25 88.15 107.15 66.5 110.25C49.45 112.7 47.3 112.95 45.65 112.35C44.6 112 39.1 109.9 33.4 107.75L23 103.85V93.15C23 87.3 22.9 82.5 22.8 82.5C22.7 82.5 22.25 82.35 21.85 82.2C21.45 82.05 20.75 82.3 20.3 82.75C19.6 83.45 19.5 85.2 19.5 96.55V109.5H11.5H3.49999V86.25V63H11.5H19.5V69.4Z" />
        <path d="M8.15 95C6.4 96.05 5 98.3 5 100C5 100.6 5.35 101.85 5.8 102.75C8.1 107.6 15.35 107.2 17 102.2C18.85 96.65 13.1 91.95 8.15 95ZM13.1 98.35C15.25 100.3 12.9 103.8 10.25 102.6C8.6 101.85 8.1 99.75 9.25 98.5C10.35 97.3 11.85 97.2 13.1 98.35Z" />
</svg>
