<svg width="100%" height="100%" viewBox="0 0 30 30" fill="currentColor" xmlns="http://www.w3.org/2000/svg">
<path d="M26.1836 10.3812C26.171 9.43447 25.9938 8.49717 25.6598 7.6112C25.3703 6.86389 24.928 6.18519 24.3613 5.61848C23.7946 5.05177 23.1159 4.60951 22.3686 4.31995C21.494 3.99164 20.5701 3.81412 19.6361 3.79495C18.4336 3.7412 18.0523 3.7262 14.9998 3.7262C11.9473 3.7262 11.5561 3.7262 10.3623 3.79495C9.42879 3.81426 8.50528 3.99178 7.63109 4.31995C6.88367 4.60931 6.20487 5.0515 5.63813 5.61824C5.0714 6.18497 4.6292 6.86377 4.33984 7.6112C4.01088 8.48511 3.83375 9.40883 3.81609 10.3424C3.76234 11.5462 3.74609 11.9274 3.74609 14.9799C3.74609 18.0324 3.74609 18.4224 3.81609 19.6174C3.83484 20.5524 4.01109 21.4749 4.33984 22.3512C4.62969 23.0984 5.07221 23.7769 5.63914 24.3434C6.20606 24.9099 6.88492 25.3519 7.63234 25.6412C8.50413 25.9827 9.42781 26.1729 10.3636 26.2037C11.5673 26.2574 11.9486 26.2737 15.0011 26.2737C18.0536 26.2737 18.4448 26.2737 19.6386 26.2037C20.5725 26.1853 21.4965 26.0082 22.3711 25.6799C23.1182 25.39 23.7967 24.9477 24.3634 24.381C24.9301 23.8143 25.3724 23.1358 25.6623 22.3887C25.9911 21.5137 26.1673 20.5912 26.1861 19.6549C26.2398 18.4524 26.2561 18.0712 26.2561 15.0174C26.2536 11.9649 26.2536 11.5774 26.1836 10.3812ZM14.9923 20.7524C11.7998 20.7524 9.21359 18.1662 9.21359 14.9737C9.21359 11.7812 11.7998 9.19495 14.9923 9.19495C16.525 9.19495 17.9948 9.80378 19.0785 10.8875C20.1623 11.9712 20.7711 13.4411 20.7711 14.9737C20.7711 16.5063 20.1623 17.9762 19.0785 19.0599C17.9948 20.1436 16.525 20.7524 14.9923 20.7524ZM21.0011 10.3287C20.8241 10.3289 20.6488 10.2941 20.4852 10.2265C20.3217 10.1588 20.1731 10.0595 20.0479 9.93439C19.9227 9.80923 19.8235 9.66062 19.7558 9.49706C19.6882 9.3335 19.6534 9.1582 19.6536 8.9812C19.6536 8.80432 19.6884 8.62918 19.7561 8.46577C19.8238 8.30236 19.923 8.15388 20.0481 8.02881C20.1731 7.90374 20.3216 7.80453 20.485 7.73685C20.6484 7.66916 20.8236 7.63432 21.0005 7.63432C21.1773 7.63432 21.3525 7.66916 21.5159 7.73685C21.6793 7.80453 21.8278 7.90374 21.9529 8.02881C22.0779 8.15388 22.1771 8.30236 22.2448 8.46577C22.3125 8.62918 22.3473 8.80432 22.3473 8.9812C22.3473 9.7262 21.7448 10.3287 21.0011 10.3287Z" fill="#323232"/>
<path d="M14.992 18.7275C17.0652 18.7275 18.7458 17.0469 18.7458 14.9737C18.7458 12.9006 17.0652 11.22 14.992 11.22C12.9189 11.22 11.2383 12.9006 11.2383 14.9737C11.2383 17.0469 12.9189 18.7275 14.992 18.7275Z" fill="#323232"/>
</svg>
