<svg width="100%" height="100%" viewBox="0 0 95 90" fill="currentColor" xmlns="http://www.w3.org/2000/svg">
<g clip-path="url(#clip0_1720_1184)">
<rect x="25" y="1" width="43" height="88" stroke="#3187D5" stroke-width="2"/>
<path d="M3.97354 51V38.148H13.6215V51H12.0195V39.57H5.59354V51H3.97354ZM28.3536 44.556C28.3536 45.552 28.2276 46.458 27.9756 47.274C27.7236 48.078 27.3456 48.774 26.8416 49.362C26.3496 49.95 25.7316 50.4 24.9876 50.712C24.2556 51.024 23.4036 51.18 22.4316 51.18C21.4236 51.18 20.5476 51.024 19.8036 50.712C19.0596 50.388 18.4416 49.938 17.9496 49.362C17.4576 48.774 17.0916 48.072 16.8516 47.256C16.6116 46.44 16.4916 45.534 16.4916 44.538C16.4916 43.218 16.7076 42.066 17.1396 41.082C17.5716 40.098 18.2256 39.33 19.1016 38.778C19.9896 38.226 21.1056 37.95 22.4496 37.95C23.7336 37.95 24.8136 38.226 25.6896 38.778C26.5656 39.318 27.2256 40.086 27.6696 41.082C28.1256 42.066 28.3536 43.224 28.3536 44.556ZM18.2016 44.556C18.2016 45.636 18.3516 46.566 18.6516 47.346C18.9516 48.126 19.4136 48.726 20.0376 49.146C20.6736 49.566 21.4716 49.776 22.4316 49.776C23.4036 49.776 24.1956 49.566 24.8076 49.146C25.4316 48.726 25.8936 48.126 26.1936 47.346C26.4936 46.566 26.6436 45.636 26.6436 44.556C26.6436 42.936 26.3076 41.67 25.6356 40.758C24.9636 39.834 23.9016 39.372 22.4496 39.372C21.4776 39.372 20.6736 39.582 20.0376 40.002C19.4136 40.41 18.9516 41.004 18.6516 41.784C18.3516 42.552 18.2016 43.476 18.2016 44.556ZM40.1025 51H38.4825V39.57H34.4145C34.3305 40.23 34.2405 40.926 34.1445 41.658C34.0485 42.378 33.9465 43.092 33.8385 43.8C33.7425 44.508 33.6465 45.174 33.5505 45.798C33.4545 46.422 33.3585 46.968 33.2625 47.436C33.1065 48.24 32.9145 48.924 32.6865 49.488C32.4585 50.052 32.1525 50.478 31.7685 50.766C31.3965 51.054 30.9045 51.198 30.2925 51.198C30.0885 51.198 29.8785 51.174 29.6625 51.126C29.4585 51.09 29.2785 51.042 29.1225 50.982V49.632C29.2545 49.692 29.4045 49.746 29.5725 49.794C29.7405 49.83 29.9205 49.848 30.1125 49.848C30.4725 49.848 30.7545 49.704 30.9585 49.416C31.1745 49.116 31.3425 48.75 31.4625 48.318C31.5825 47.874 31.6845 47.436 31.7685 47.004C31.8405 46.656 31.9245 46.194 32.0205 45.618C32.1165 45.03 32.2185 44.346 32.3265 43.566C32.4465 42.786 32.5665 41.94 32.6865 41.028C32.8185 40.104 32.9445 39.144 33.0645 38.148H40.1025V51ZM54.8086 44.556C54.8086 45.552 54.6826 46.458 54.4306 47.274C54.1786 48.078 53.8006 48.774 53.2966 49.362C52.8046 49.95 52.1866 50.4 51.4426 50.712C50.7106 51.024 49.8586 51.18 48.8866 51.18C47.8786 51.18 47.0026 51.024 46.2586 50.712C45.5146 50.388 44.8966 49.938 44.4046 49.362C43.9126 48.774 43.5466 48.072 43.3066 47.256C43.0666 46.44 42.9466 45.534 42.9466 44.538C42.9466 43.218 43.1626 42.066 43.5946 41.082C44.0266 40.098 44.6806 39.33 45.5566 38.778C46.4446 38.226 47.5606 37.95 48.9046 37.95C50.1886 37.95 51.2686 38.226 52.1446 38.778C53.0206 39.318 53.6806 40.086 54.1246 41.082C54.5806 42.066 54.8086 43.224 54.8086 44.556ZM44.6566 44.556C44.6566 45.636 44.8066 46.566 45.1066 47.346C45.4066 48.126 45.8686 48.726 46.4926 49.146C47.1286 49.566 47.9266 49.776 48.8866 49.776C49.8586 49.776 50.6506 49.566 51.2626 49.146C51.8866 48.726 52.3486 48.126 52.6486 47.346C52.9486 46.566 53.0986 45.636 53.0986 44.556C53.0986 42.936 52.7626 41.67 52.0906 40.758C51.4186 39.834 50.3566 39.372 48.9046 39.372C47.9326 39.372 47.1286 39.582 46.4926 40.002C45.8686 40.41 45.4066 41.004 45.1066 41.784C44.8066 42.552 44.6566 43.476 44.6566 44.556ZM61.1802 51H59.5602V39.57H55.5462V38.148H65.1762V39.57H61.1802V51ZM76.9422 51H75.3222V45.006H68.7342V51H67.1142V38.148H68.7342V43.584H75.3222V38.148H76.9422V51ZM91.67 44.556C91.67 45.552 91.544 46.458 91.292 47.274C91.04 48.078 90.662 48.774 90.158 49.362C89.666 49.95 89.048 50.4 88.304 50.712C87.572 51.024 86.72 51.18 85.748 51.18C84.74 51.18 83.864 51.024 83.12 50.712C82.376 50.388 81.758 49.938 81.266 49.362C80.774 48.774 80.408 48.072 80.168 47.256C79.928 46.44 79.808 45.534 79.808 44.538C79.808 43.218 80.024 42.066 80.456 41.082C80.888 40.098 81.542 39.33 82.418 38.778C83.306 38.226 84.422 37.95 85.766 37.95C87.05 37.95 88.13 38.226 89.006 38.778C89.882 39.318 90.542 40.086 90.986 41.082C91.442 42.066 91.67 43.224 91.67 44.556ZM81.518 44.556C81.518 45.636 81.668 46.566 81.968 47.346C82.268 48.126 82.73 48.726 83.354 49.146C83.99 49.566 84.788 49.776 85.748 49.776C86.72 49.776 87.512 49.566 88.124 49.146C88.748 48.726 89.21 48.126 89.51 47.346C89.81 46.566 89.96 45.636 89.96 44.556C89.96 42.936 89.624 41.67 88.952 40.758C88.28 39.834 87.218 39.372 85.766 39.372C84.794 39.372 83.99 39.582 83.354 40.002C82.73 40.41 82.268 41.004 81.968 41.784C81.668 42.552 81.518 43.476 81.518 44.556Z" fill="#323232"/>
</g>
<defs>
<clipPath id="clip0_1720_1184">
<rect width="95" height="90" fill="white"/>
</clipPath>
</defs>
</svg>
