<svg width="100%" height="100%" viewBox="0 0 60 60" fill="currentColor" xmlns="http://www.w3.org/2000/svg">
<path d="M11.4765 46.3C12.4738 46.3 13.2585 46.5383 13.8305 47.015C14.4025 47.4917 14.6885 48.148 14.6885 48.984C14.6885 49.82 14.4025 50.4763 13.8305 50.953C13.2585 51.4297 12.4738 51.668 11.4765 51.668H9.57352V54H8.47352V46.3H11.4765ZM11.4435 50.711C12.1402 50.711 12.6718 50.5643 13.0385 50.271C13.4052 49.9703 13.5885 49.5413 13.5885 48.984C13.5885 48.4267 13.4052 48.0013 13.0385 47.708C12.6718 47.4073 12.1402 47.257 11.4435 47.257H9.57352V50.711H11.4435ZM18.8461 54.066C18.2668 54.066 17.7461 53.9377 17.2841 53.681C16.8221 53.4243 16.4591 53.0723 16.1951 52.625C15.9384 52.1703 15.8101 51.657 15.8101 51.085C15.8101 50.513 15.9384 50.0033 16.1951 49.556C16.4591 49.1013 16.8221 48.7493 17.2841 48.5C17.7461 48.2433 18.2668 48.115 18.8461 48.115C19.4254 48.115 19.9424 48.2433 20.3971 48.5C20.8591 48.7493 21.2184 49.1013 21.4751 49.556C21.7391 50.0033 21.8711 50.513 21.8711 51.085C21.8711 51.657 21.7391 52.1703 21.4751 52.625C21.2184 53.0723 20.8591 53.4243 20.3971 53.681C19.9424 53.9377 19.4254 54.066 18.8461 54.066ZM18.8461 53.142C19.2201 53.142 19.5538 53.0577 19.8471 52.889C20.1478 52.713 20.3824 52.471 20.5511 52.163C20.7198 51.8477 20.8041 51.4883 20.8041 51.085C20.8041 50.6817 20.7198 50.326 20.5511 50.018C20.3824 49.7027 20.1478 49.4607 19.8471 49.292C19.5538 49.1233 19.2201 49.039 18.8461 49.039C18.4721 49.039 18.1348 49.1233 17.8341 49.292C17.5408 49.4607 17.3061 49.7027 17.1301 50.018C16.9614 50.326 16.8771 50.6817 16.8771 51.085C16.8771 51.4883 16.9614 51.8477 17.1301 52.163C17.3061 52.471 17.5408 52.713 17.8341 52.889C18.1348 53.0577 18.4721 53.142 18.8461 53.142ZM25.3225 54.066C24.7578 54.066 24.3215 53.912 24.0135 53.604C23.7055 53.2887 23.5515 52.8487 23.5515 52.284V45.838H24.6075V52.196C24.6075 52.5113 24.6808 52.7533 24.8275 52.922C24.9815 53.0907 25.2088 53.175 25.5095 53.175C25.6928 53.175 25.8652 53.1383 26.0265 53.065L26.0815 53.934C25.8395 54.022 25.5865 54.066 25.3225 54.066ZM29.6953 54.066C29.1159 54.066 28.5953 53.9377 28.1333 53.681C27.6713 53.4243 27.3083 53.0723 27.0443 52.625C26.7876 52.1703 26.6593 51.657 26.6593 51.085C26.6593 50.513 26.7876 50.0033 27.0443 49.556C27.3083 49.1013 27.6713 48.7493 28.1333 48.5C28.5953 48.2433 29.1159 48.115 29.6953 48.115C30.2746 48.115 30.7916 48.2433 31.2463 48.5C31.7083 48.7493 32.0676 49.1013 32.3243 49.556C32.5883 50.0033 32.7203 50.513 32.7203 51.085C32.7203 51.657 32.5883 52.1703 32.3243 52.625C32.0676 53.0723 31.7083 53.4243 31.2463 53.681C30.7916 53.9377 30.2746 54.066 29.6953 54.066ZM29.6953 53.142C30.0693 53.142 30.4029 53.0577 30.6963 52.889C30.9969 52.713 31.2316 52.471 31.4003 52.163C31.5689 51.8477 31.6533 51.4883 31.6533 51.085C31.6533 50.6817 31.5689 50.326 31.4003 50.018C31.2316 49.7027 30.9969 49.4607 30.6963 49.292C30.4029 49.1233 30.0693 49.039 29.6953 49.039C29.3213 49.039 28.9839 49.1233 28.6833 49.292C28.3899 49.4607 28.1553 49.7027 27.9793 50.018C27.8106 50.326 27.7263 50.6817 27.7263 51.085C27.7263 51.4883 27.8106 51.8477 27.9793 52.163C28.1553 52.471 28.3899 52.713 28.6833 52.889C28.9839 53.0577 29.3213 53.142 29.6953 53.142ZM37.4697 53.659C37.3157 53.791 37.125 53.8937 36.8977 53.967C36.6704 54.033 36.4357 54.066 36.1937 54.066C35.607 54.066 35.1524 53.9083 34.8297 53.593C34.507 53.2777 34.3457 52.8267 34.3457 52.24V46.894H35.4017V48.17H37.0737V49.039H35.4017V52.196C35.4017 52.5113 35.4787 52.7533 35.6327 52.922C35.794 53.0907 36.0214 53.175 36.3147 53.175C36.6374 53.175 36.9124 53.0833 37.1397 52.9L37.4697 53.659ZM42.0735 48.115C42.8142 48.115 43.4009 48.3313 43.8335 48.764C44.2735 49.1893 44.4935 49.8163 44.4935 50.645V54H43.4375V50.766C43.4375 50.2013 43.3019 49.776 43.0305 49.49C42.7592 49.204 42.3705 49.061 41.8645 49.061C41.2925 49.061 40.8415 49.2297 40.5115 49.567C40.1815 49.897 40.0165 50.3737 40.0165 50.997V54H38.9605V48.17H39.9725V49.05C40.1852 48.7493 40.4712 48.5183 40.8305 48.357C41.1972 48.1957 41.6115 48.115 42.0735 48.115ZM49.1971 54.066C48.6177 54.066 48.0971 53.9377 47.6351 53.681C47.1731 53.4243 46.8101 53.0723 46.5461 52.625C46.2894 52.1703 46.1611 51.657 46.1611 51.085C46.1611 50.513 46.2894 50.0033 46.5461 49.556C46.8101 49.1013 47.1731 48.7493 47.6351 48.5C48.0971 48.2433 48.6177 48.115 49.1971 48.115C49.7764 48.115 50.2934 48.2433 50.7481 48.5C51.2101 48.7493 51.5694 49.1013 51.8261 49.556C52.0901 50.0033 52.2221 50.513 52.2221 51.085C52.2221 51.657 52.0901 52.1703 51.8261 52.625C51.5694 53.0723 51.2101 53.4243 50.7481 53.681C50.2934 53.9377 49.7764 54.066 49.1971 54.066ZM49.1971 53.142C49.5711 53.142 49.9047 53.0577 50.1981 52.889C50.4987 52.713 50.7334 52.471 50.9021 52.163C51.0707 51.8477 51.1551 51.4883 51.1551 51.085C51.1551 50.6817 51.0707 50.326 50.9021 50.018C50.7334 49.7027 50.4987 49.4607 50.1981 49.292C49.9047 49.1233 49.5711 49.039 49.1971 49.039C48.8231 49.039 48.4857 49.1233 48.1851 49.292C47.8917 49.4607 47.6571 49.7027 47.4811 50.018C47.3124 50.326 47.2281 50.6817 47.2281 51.085C47.2281 51.4883 47.3124 51.8477 47.4811 52.163C47.6571 52.471 47.8917 52.713 48.1851 52.889C48.4857 53.0577 48.8231 53.142 49.1971 53.142Z" fill="#3187D5"/>
<path d="M23.3047 39.2912C20.2424 38.1371 17.5063 36.2166 15.3499 33.6996C13.0398 31.0032 11.4799 27.7213 10.8344 24.1964C10.1888 20.6716 10.4815 17.0343 11.6817 13.665C12.8818 10.2957 14.9449 7.31893 17.6542 5.04492C20.3634 2.77098 23.6194 1.28305 27.0818 0.735337C30.5441 0.187634 34.0871 0.600018 37.3408 1.92982C40.5946 3.25967 43.4406 5.45856 45.5806 8.29808C47.5584 10.9224 48.8658 14.0046 49.3903 17.2665L34.7588 12.078L34.5868 12.017L34.4159 12.0812L19.8617 17.5451L18.1712 18.1797L19.9473 18.505L23.3047 19.1199V39.2912Z" stroke="#3187D5"/>
<path d="M30.2266 22L28.1293 25.6719H41.918L39.8203 22H30.2266ZM26 26.375V28.1719H44.0469V26.375H26ZM27.25 28.875V30.6719H29.0469V28.875H27.25ZM41 28.875V30.6719H42.7969V28.875H41ZM34.3047 28.8984C34.3047 28.8984 33.4453 29.2422 33.3672 29.6328C33.1875 30.5234 34.6914 32.0078 34.6914 32.0078C34.6914 32.0078 34.1719 30.6562 34.1328 29.9453C34.1133 29.5898 34.3047 28.8984 34.3047 28.8984ZM36.4297 29.4766C36.1914 31.0469 35.9922 32.7461 34.6367 33.3906C33.4531 33.9531 33.2148 30.3242 30.9609 29.8164C32.7148 33.7656 28.2695 35.2812 32.6094 37.0508H33.3711C32.4336 36.0391 32.0273 33.5039 32.0273 33.5039C32.0273 33.5039 33.207 36.3164 34.4688 36.4023C35.0547 36.4414 35.7773 35.2227 35.7773 35.2227C35.7773 35.2227 36.0078 36.3867 35.7734 37.0508H37.4844C38.5508 36.4727 39.2266 35.6562 39.4844 34.8125C39.7383 33.9961 39.6016 33.1523 39.0586 32.4727C38.7227 34.4961 38.2227 34.9258 36.9062 35.3672C38.3359 33.6211 37.6953 30.7109 36.4297 29.4766ZM27.25 31.375V33.1719H29.0469V31.375H27.25ZM41 31.375V33.1719H42.7969V31.375H41ZM27.25 33.875V36.9219H29.0469V33.875H27.25ZM41 33.875V36.9219H42.7969V33.875H41ZM26 37.625V40.0469H44.0469V37.625H26Z" fill="#3187D5"/>
</svg>

