<svg width="100%" height="100%" viewBox="0 0 30 30" fill="currenColor" xmlns="http://www.w3.org/2000/svg">
<path d="M14.9875 2.5C8.09 2.5 2.5 8.09125 2.5 14.9875C2.5 20.2775 5.79125 24.8 10.4375 26.62C10.3275 25.6325 10.23 24.1125 10.48 23.035C10.7075 22.06 11.945 16.8275 11.945 16.8275C11.945 16.8275 11.5712 16.0787 11.5712 14.9725C11.5712 13.2375 12.5775 11.9412 13.8312 11.9412C14.8975 11.9412 15.4112 12.7412 15.4112 13.7C15.4112 14.7725 14.7287 16.3737 14.3775 17.8587C14.0837 19.1012 15.0012 20.115 16.2262 20.115C18.445 20.115 20.1525 17.775 20.1525 14.3962C20.1525 11.4062 18.0037 9.31625 14.9362 9.31625C11.3825 9.31625 9.29625 11.9812 9.29625 14.735C9.29625 15.8075 9.71 16.9587 10.2262 17.585C10.2701 17.6322 10.3011 17.6898 10.3162 17.7524C10.3313 17.8151 10.33 17.8805 10.3125 17.9425C10.2175 18.3362 10.0062 19.185 9.96625 19.3587C9.91125 19.5875 9.785 19.6362 9.5475 19.5262C7.98875 18.8 7.01375 16.52 7.01375 14.6875C7.01375 10.7487 9.875 7.13125 15.265 7.13125C19.5975 7.13125 22.9637 10.2175 22.9637 14.3437C22.9637 18.6487 20.25 22.11 16.4837 22.11C15.2175 22.11 14.0287 21.4537 13.6212 20.6775L12.8425 23.645C12.5612 24.73 11.8 26.09 11.2912 26.92C12.4889 27.2897 13.7353 27.4773 14.9887 27.4762C21.885 27.4762 27.4762 21.885 27.4762 14.9887C27.4762 8.0925 21.8837 2.5 14.9875 2.5Z" fill="#323232"/>
</svg>
