<svg width="100%" height="100%" viewBox="0 0 120 120" fill="currentColor" xmlns="http://www.w3.org/2000/svg">
    <path d="M16 0.449998C12.25 1.6 9.65002 3.95 8.05002 7.5C7.20002 9.4 7.00002 10.8 7.00002 16.65C7.00002 24.55 7.50002 26.15 10.25 27.3C11.2 27.7 13.1 28 14.5 28H17V40.4V52.75L13.65 55.4C10.8 57.6 10.05 58 8.20002 58C5.70002 58 4.55002 59.25 5.50002 61C5.90002 61.75 6.55002 62 8.20002 62C10.05 62 10.8 62.4 13.65 64.6L17 67.25V75.6V84H9.60002C4.50002 84 2.00002 84.2 1.60002 84.6C0.750024 85.45 0.750024 106.55 1.60002 107.4C2.00002 107.8 4.50002 108 9.60002 108H17V111.4C17 115.45 18.05 117.75 20.55 119.1C22.15 119.95 24.2 120 61.6 119.9L101 119.75L102.85 117.85L104.75 116L104.9 93L105.05 70H108.65C115.75 70 119 66.95 119 60.1C119 52.85 116.05 50 108.45 50H105.05L104.9 30.1L104.75 10.25L103.25 7.6C101.65 4.65 99.95 3.05 96.8 1.35L94.75 0.249998L56 0.149998C34.7 0.0999982 16.7 0.249998 16 0.449998ZM81.4 4.35C79.15 8.8 79 9.6 79 15.8C79 19.25 78.75 22.5 78.5 23.05C78 23.95 77.1 24 45.05 24C16.95 24 12.05 23.9 11.5 23.3C11.1 22.75 10.95 20.55 11.1 15.8C11.25 8.2 11.65 7.2 15.3 5.15L17.25 4H49.4C67.1 4 81.5 4.15 81.4 4.35ZM96.6 5.8C97.75 6.6 99.2 8.25 99.85 9.45C101 11.65 101 11.7 101 30.85V50H61H21V39V28H49.75C80.8 28 80.4 28.05 82.15 25.35C82.7 24.5 82.95 22.4 83.1 16.95C83.3 8.65 83.75 7.3 87.1 5.25C90 3.5 93.6 3.7 96.6 5.8ZM93 56V58H60.55H28.1L26.5 56L24.9 54H58.95H93V56ZM101 60V66H99H97V60V54H99H101V60ZM113.75 55.3C114.8 56.45 115 57.15 115 60C115 62.85 114.8 63.55 113.75 64.7C112.65 65.9 112.2 66 108.75 66H105V60V54H108.75C112.2 54 112.65 54.1 113.75 55.3ZM22.7 57.5L24.6 60L22.7 62.5C21.65 63.85 20.7 65 20.6 65C20.15 65 14.5 60.4 14.5 60C14.5 59.6 19.95 55.05 20.5 55C20.65 55 21.65 56.1 22.7 57.5ZM93 64V66H58.95H24.9L26.5 64L28.1 62H60.55H93V64ZM101 92.1C101 111.95 100.9 114.25 100.15 115.1C99.4 115.95 97.5 116 61.1 116C17.15 116 21 116.45 21 111.15V108H53.4C77.95 108 85.95 107.85 86.4 107.4C87.25 106.55 87.25 85.45 86.4 84.6C85.95 84.15 77.95 84 53.4 84H21V77V70H61H101V92.1ZM11 90.45C11 93.4 11.9 94.45 13.75 93.6C14.85 93.1 15 92.7 15 90.5V88H17H19V90.5C19 92.45 19.2 93.1 20 93.5C21.85 94.5 23 93.35 23 90.5V88H25H27V92.4C27 96.95 27.4 98 29.1 98C30.5 98 31 96.35 31 92.05V88H33H35V90.45C35 93.4 35.9 94.45 37.75 93.6C38.85 93.1 39 92.7 39 90.5V88H41H43V90.5C43 93.35 44.15 94.5 46 93.5C46.8 93.1 47 92.45 47 90.5V88H49H51V92.4C51 96.95 51.4 98 53.1 98C54.5 98 55 96.35 55 92.05V88H57H59V90.45C59 93.4 59.9 94.45 61.75 93.6C62.85 93.1 63 92.7 63 90.5V88H73H83V96V104H44H5.00002V96V88H8.00002H11V90.45Z" />
    <path d="M70.45 91.45C69.15 92.75 69 93.25 69 96C69 98.75 69.15 99.25 70.45 100.55C71.75 101.85 72.25 102 75 102C77.75 102 78.25 101.85 79.55 100.55C80.85 99.25 81 98.75 81 96C81 93.25 80.85 92.75 79.55 91.45C78.25 90.15 77.75 90 75 90C72.25 90 71.75 90.15 70.45 91.45ZM77 96V98H75H73V96V94H75H77V96Z" />
</svg>
