<svg width="120" height="120" viewBox="0 0 120 120" fill="currentColor" xmlns="http://www.w3.org/2000/svg">
    <path d="M40.25 16C34.5 16.6 30.4 17.75 25.15 20.25C5.25 29.9 -4.6 53 2.3 73.85C6.9 87.65 18.1 98.3 32.75 102.85L37.25 104.2L61.15 104.4C84.65 104.55 85.05 104.55 86.5 103.5C87.3 102.95 88.25 101.7 88.55 100.75L89.2 99H103.65C112.65 99 118.45 98.8 119.05 98.5C119.9 98 120 97.4 120 91.3C120 85.8 119.85 84.5 119.2 83.95C118.65 83.5 118.2 83.45 117.6 83.85C116.9 84.25 116.7 85.35 116.6 89.7L116.45 95H102.8H89.1L88.85 74.4L88.65 53.75L87.3 49.05L85.95 44.4L87.2 43.05C89.2 41 89.7 38.95 88.8 36.8C86.45 31.15 79.1 22.95 72.35 18.45C66.75 14.7 64.55 14.55 61.2 17.6C60.1 18.55 60.1 18.55 56.9 17.6C54.05 16.7 51.85 16.35 46 15.8C45.05 15.7 42.45 15.8 40.25 16ZM70 21.1C76.2 25.1 85.5 35.7 85.5 38.8C85.5 39.4 85.15 40.15 84.75 40.5C84.3 40.9 84 40.9 84 40.6C84 40.3 82.65 38.05 81 35.6C77.5 30.35 72.05 25.05 67.35 22.3C64 20.35 63.45 19.8 64.65 19.35C66 18.8 66.9 19.1 70 21.1ZM52.9 20.3C57.6 21.2 65.6 25.05 69.6 28.2C76 33.3 81.75 42.25 84.1 50.75C85.1 54.5 85.2 56.05 85.4 77.05C85.55 97.65 85.5 99.4 84.75 100.2C83.95 101 82.1 101.05 61.05 100.9L38.25 100.7L33.75 99.35C19.2 94.85 8.65 84.15 4.9 70.1C3.55 64.95 3.45 56.25 4.65 51C8.45 35.15 21.7 22.6 37.5 19.85C40.6 19.3 49.35 19.55 52.9 20.3Z"/>
    <path d="M54.7 26.2C54.1 27.75 54.85 28.65 57.6 29.8C60.8 31.15 62 30.95 62 29.15C62 28.2 61.5 27.7 59.4 26.75C56.35 25.35 55.1 25.2 54.7 26.2Z"/>
    <path d="M64.35 31.35C63.5 32.15 64.2 33.3 67.4 36.45C69.25 38.3 71.3 40.8 72 41.95C74.25 45.75 75.3 46.8 76.35 46.2C76.85 45.9 77.3 45.2 77.4 44.7C77.75 42.2 68.3 31 65.9 31C65.2 31 64.5 31.15 64.35 31.35Z"/>
    <path d="M38.9 35.8C25.3 39.05 16.8 52.95 20.25 66.25C22.5 74.8 29.2 81.75 37.45 84.2C39.1 84.7 42 85 44.7 85C51.9 84.95 57.3 82.7 62.35 77.55C71.85 67.9 71.8 52.45 62.25 42.7C56.15 36.45 47.15 33.8 38.9 35.8ZM51.8 40.1C59.2 42.8 64.2 48.95 65.6 56.95C66.7 63.3 64.65 69.8 59.95 74.75C55.6 79.35 50.7 81.5 44.45 81.5C27.85 81.5 17.6 63.35 26.15 49.05C29.1 44.15 35.15 40 40.85 39C44.05 38.45 48.65 38.9 51.8 40.1Z"/>
    <path d="M39.25 43.65C27 47.7 23.25 63.3 32.4 72.4C33.55 73.6 35.85 75.2 37.4 75.9C39.8 77 40.95 77.25 44.5 77.2C50.6 77.2 54.85 75.1 58.25 70.5C60.65 67.25 61.6 64.4 61.6 60.25C61.6 56.45 60.05 51.3 58.75 50.8C56.7 50.05 55.65 51.9 56.85 54.15C57.3 55.05 57.75 57.35 57.9 59.3C58.1 62.35 57.95 63.3 56.9 65.55C54.45 70.9 50.2 73.65 44.5 73.7C40.65 73.7 37.5 72.5 34.9 69.85C29.35 64.3 29.65 54.85 35.6 49.8C40.25 45.8 47.55 45.5 52.6 49.1C53.7 49.85 54.2 49.95 55 49.5C57.05 48.4 55.7 46.45 51.55 44.45C48.7 43.1 42.25 42.7 39.25 43.65Z"/>
</svg>
