<svg width="120" height="120" viewBox="0 0 120 120" fill="currentColor" xmlns="http://www.w3.org/2000/svg">
        <path d="M58 3.99998V7.99998H54H50V15V22.05L44.4 21.9L38.75 21.75L38.4 19C37.8 14.9 36.55 14 31.55 14C26.45 14 25.45 14.75 24.75 18.8L24.25 21.75L21.9 22.05C17.75 22.65 13.75 24.85 10.55 28.3C6.25 32.85 5.35 35.5 5.1 44.1C4.9 50.9 4.9 51 6.75 56.5C7.75 59.55 9.1 62.65 9.75 63.4C10.85 64.7 11.15 64.75 16.7 64.9L22.5 65.1V70.8V76.5H24.45C26.4 76.5 26.45 76.45 26.6 74.6C26.75 72.85 26.85 72.75 28.65 72.6C30.4 72.45 30.5 72.35 30.5 70.7C30.5 69.05 30.45 69 28.5 69H26.5V67V65H30.5C34.9 65 37.75 64.15 38.2 62.65C38.35 62.15 38.8 59.95 39.25 57.8C39.65 55.65 40.1 53.7 40.3 53.55C40.45 53.4 46.75 53.2 54.3 53.1L68 52.95V66.75V80.5L38.65 80.55C22.45 80.55 7.75 80.7 5.9 80.95C3.4 81.2 2.2 81.6 1.25 82.5L0 83.65V98.85V114H2.5H5V117V120.05L10.85 119.9L16.75 119.75L16.9 116.9L17.05 114H59H100.95L101.1 116.85L101.25 119.75L107.15 119.9L113 120.05V117V114H116H119V105.6C119 93.25 118.2 79.15 116.75 65.85C116.05 59.35 115.5 52.9 115.5 51.5C115.5 49.1 115.55 49 116.9 49C119.75 49 120 48.1 120 38.1V29.05L118.5 28.25C117.7 27.85 116.6 27.5 116.05 27.5C115.4 27.5 114.9 27.05 114.7 26.3C114.55 25.65 113.75 24.45 112.95 23.7L111.45 22.25L102.6 22L93.75 21.75L93.6 14.85L93.45 7.99998H89.5H85.5V3.99998V-2.29403e-05H83.5C81.85 -2.29403e-05 81.5 0.149977 81.5 0.999977C81.5 1.94998 81.15 1.99998 71.75 1.99998C62.35 1.99998 62 1.94998 62 0.999977C62 0.149977 61.65 -2.29403e-05 60 -2.29403e-05H58V3.99998ZM64 9.99998C64 13.65 63.9 14 63 14C62.1 14 62 13.65 62 9.99998C62 6.34998 62.1 5.99998 63 5.99998C63.9 5.99998 64 6.34998 64 9.99998ZM70 9.99998C70 13.65 69.9 14 69 14C68.1 14 68 13.65 68 9.99998C68 6.34998 68.1 5.99998 69 5.99998C69.9 5.99998 70 6.34998 70 9.99998ZM75.5 9.99998C75.5 13.2 75.35 14 74.75 14C74.15 14 74 13.2 74 9.99998C74 6.79998 74.15 5.99998 74.75 5.99998C75.35 5.99998 75.5 6.79998 75.5 9.99998ZM81.5 9.99998C81.5 13.65 81.4 14 80.5 14C79.6 14 79.5 13.65 79.5 9.99998C79.5 6.34998 79.6 5.99998 80.5 5.99998C81.4 5.99998 81.5 6.34998 81.5 9.99998ZM58 15.75V19.5H60C61.65 19.5 62 19.35 62 18.5C62 17.55 62.35 17.5 71.55 17.5C80.65 17.5 81.1 17.55 81.35 18.5C81.55 19.3 82.05 19.5 83.55 19.5H85.5V15.75V12H87.5H89.55L89.4 16.85L89.25 21.75H71.75H54.25L54.1 16.85L53.95 12H56H58V15.75ZM34.4 19.6L34.25 21.75H31.5C28.85 21.75 28.75 21.7 28.6 20.35C28.3 17.85 28.7 17.5 31.75 17.5H34.55L34.4 19.6ZM109.7 26C111 26.45 111 26.5 111 32.1C111 41.35 111.95 57.2 113 66.25C114.35 77.5 115 88.65 115 100.35V110H59H3V97.75C3 86.2 3.05 85.5 3.95 85C4.6 84.7 16.3 84.5 38.45 84.5H72L71.9 66.85L71.75 49.25L63.75 49.1C59.35 49 52.1 49.1 47.65 49.25C39.9 49.6 39.55 49.65 38 50.95C36.65 52.1 36.35 52.8 35.6 56.6L34.8 61H23.5H12.2L10.55 55.85C8.95 50.9 8.9 50.55 9.1 43.75C9.25 37.6 9.4 36.45 10.45 34.5C13.05 29.45 17.15 26.55 22.5 26C27.75 25.45 108.25 25.45 109.7 26ZM117 38.15C117 41.85 116.85 44.95 116.7 45.15C116.55 45.3 116.1 45.3 115.7 45.15C115.15 44.95 115 43.5 115 38.2C115 31.85 115.05 31.5 116 31.5C116.95 31.5 117 31.85 117 38.15ZM13 115C13 115.85 12.65 116 11 116C9.35 116 9 115.85 9 115C9 114.15 9.35 114 11 114C12.65 114 13 114.15 13 115ZM109 115C109 115.85 108.65 116 107 116C105.35 116 105 115.85 105 115C105 114.15 105.35 114 107 114C108.65 114 109 114.15 109 115Z" />
        <path d="M82.5 30.6C76.85 33.45 76.4 40.8 81.6 44C83.05 44.9 84.15 45 91.45 45C98.9 45 99.8 44.9 101.35 43.95C104.9 41.75 106 36.75 103.75 33.35C101.55 30.1 99.6 29.5 91.65 29.5C85.45 29.5 84.45 29.6 82.5 30.6ZM99.9 34.3C101.4 35.35 101.45 38.95 99.95 40.3C99.05 41.1 97.95 41.3 92.6 41.4C85.2 41.6 82.7 41.1 81.95 39.15C81.3 37.4 81.85 35.15 83.15 34.25C84.75 33.15 98.3 33.15 99.9 34.3Z" />
        <path d="M22.5 36.25C22.5 38.75 22.35 39.2 20.75 40.8C19.4 42.15 19 42.95 19 44.35C19 45.75 19.4 46.5 20.75 47.8C21.7 48.7 22.5 49.8 22.5 50.2C22.5 50.8 23 51 24.5 51C25.9 51 26.5 50.8 26.5 50.3C26.5 49.9 27.1 49.1 27.9 48.5C31.1 46 31.3 43.6 28.5 40.95C26.65 39.15 26.5 38.85 26.5 36.25V33.5H24.5H22.5V36.25ZM26.5 44.25C26.5 45.05 23.3 45.35 22.8 44.55C22.35 43.85 23.05 43.5 24.85 43.5C26 43.5 26.5 43.75 26.5 44.25Z" />
        <path d="M87.5 57.65C78.15 60.3 73.3 70.9 77.5 79.4C81.3 86.95 90.05 90.3 97.4 87.05C101.15 85.35 105.25 80.85 106.3 77.15C109.55 65.9 98.55 54.5 87.5 57.65ZM95.55 61.75C100.1 63.4 103 67.6 103 72.75C103 81.8 93.95 87.3 85.95 83.1C77.25 78.55 77.7 66.05 86.7 61.95C89.2 60.8 92.65 60.75 95.55 61.75Z" />
        <path d="M88 65.9C82.35 69 82.45 76.95 88.2 79.7C91.75 81.4 95.4 80.2 97.85 76.55C101.9 70.55 94.35 62.4 88 65.9ZM94.2 69.95C94.7 70.5 95.1 71.75 95.1 72.75C95.1 75.2 93.85 76.5 91.4 76.5C88.95 76.5 87.5 75.1 87.5 72.75C87.5 70.4 88.95 69 91.4 69C92.7 69 93.65 69.35 94.2 69.95Z" />
        <path d="M87.5 104.25V106H94.25H101V104.25V102.5H94.25H87.5V104.25Z" />
        <path d="M105 104.25C105 105.95 105.05 106 107 106C108.95 106 109 105.95 109 104.25C109 102.55 108.95 102.5 107 102.5C105.05 102.5 105 102.55 105 104.25Z" />
        <rect x="89" y="49" width="4" height="4" />
        <rect x="81" y="49" width="4" height="4" />
        <rect x="97" y="49" width="4" height="4" />
        <rect x="89" y="49" width="4" height="4" />
        <rect x="105" y="102" width="4" height="4" />
        <rect x="81" y="49" width="4" height="4" />
        <rect x="97" y="49" width="4" height="4" />
        <rect x="87" y="102" width="14" height="4" />
</svg>
