<svg width="100%" height="100%" viewBox="0 0 120 120" fill="currentColor" xmlns="http://www.w3.org/2000/svg">
        <path d="M3.39999 12.8C-0.200014 14.3 -1.416e-05 11.65 -1.416e-05 61.95C-1.416e-05 105.95 -1.41142e-05 107 0.949986 107.5C1.54999 107.8 6.04999 108 12.15 108C24.9 108 24.85 108.05 24 102.75C23.7 100.8 23.35 98.65 23.2 97.9L22.9 96.5H60H97.1L96.8 97.9C96.05 101.65 95.55 106 95.8 106.65C96.25 107.85 97.6 108 108.35 108C116.85 108 118.55 107.9 119.2 107.2C119.9 106.5 120 101.7 120 61.65C120 11.45 120.2 14.3 116.45 12.8C114.7 12.1 108.5 12 59.85 12.05C12.1 12.05 4.99999 12.15 3.39999 12.8ZM17 16.6C17 16.95 16.75 20.85 16.5 25.25C15.7 37.65 13.7 49.25 10.45 60.25C8.64999 66.25 5.39999 74 4.69999 74C4.09999 74 3.99999 69.2 3.99999 45.35C3.99999 29.55 4.14999 16.5 4.34999 16.35C4.49999 16.15 7.44999 16 10.85 16C15.45 16 17 16.15 17 16.6ZM29.8 20.85C28.95 32.2 26.05 43.95 21.6 53.9C19.15 59.35 14.1 67.85 11.45 71L9.94999 72.75L11.3 69.25C16.6 55.3 20.45 34.4 20.5 19.35V16H25.3H30.15L29.8 20.85ZM42.8 20.2C41.6 36.1 34.2 52.15 22 65.25C17 70.65 16.1 71.2 18.65 67.2C26.85 54.45 32.5 36.9 33.35 21.6L33.65 16H38.4H43.15L42.8 20.2ZM73.15 17.35C73.5 19.25 73.35 19.35 70.1 20.35C67.95 21.05 65.5 21.25 60 21.25C54.5 21.25 52.05 21.05 49.9 20.35C46.65 19.35 46.5 19.25 46.85 17.35L47.1 16H60H72.9L73.15 17.35ZM86.5 19.35C86.55 26.25 88.6 37.4 91.55 46.5C93.45 52.3 98.05 62.1 101.25 67.05L103.6 70.75L99.75 67C93.85 61.25 88 53.05 84.15 45.25C80.15 37.15 77.05 25.4 77 18.1V16H81.75H86.5V19.35ZM99.5 19.35C99.55 34.4 103.4 55.3 108.7 69.25L110.05 72.75L108.55 71C105.9 67.85 100.85 59.35 98.4 53.9C93.95 43.95 91.05 32.2 90.2 20.85L89.85 16H94.7H99.5V19.35ZM115.9 45.1C116 69.35 115.9 74 115.3 74C114.6 74 111.35 66.25 109.55 60.25C106.3 49.25 104.3 37.65 103.5 25.25C103.25 20.85 103 16.95 103 16.6C103 16.1 104.45 16 109.4 16.1L115.75 16.25L115.9 45.1ZM60 25.1C64.6 25.1 67.2 24.85 69.9 24.15C74 23.05 73.9 22.95 74.1 26.75L74.25 29.2L71.5 29.9C69.65 30.4 65.95 30.65 60 30.65C54.05 30.65 50.35 30.4 48.5 29.9L45.75 29.2L45.9 26.75C46.1 22.95 46 23.05 50.1 24.15C52.8 24.85 55.4 25.1 60 25.1ZM49.25 33.75C54.55 34.7 65.25 34.7 70.7 33.75C73.1 33.3 75.25 33.1 75.45 33.25C75.95 33.55 77.15 38 76.8 38.35C76.35 38.8 68.55 39.95 63.75 40.3C58.85 40.6 50.35 40 45.35 38.9C43 38.4 42.95 38.4 43.3 36.85C43.8 34.55 44.4 33 44.85 33C45.1 33 47.05 33.35 49.25 33.75ZM46.25 42.85C52.05 44.05 68.2 44.05 73.95 42.85C76.25 42.35 78.2 42.05 78.3 42.1C78.4 42.2 79.7 44.7 81.2 47.6C86 56.95 92.6 65.75 99.9 72.45L104.15 76.4L102.8 78.7C102.05 80 100.55 83.65 99.5 86.9L97.6 92.75H60H22.4L20.5 86.9C19.5 83.7 18.05 80.05 17.25 78.7L15.85 76.35L19.85 72.7C27.6 65.65 34.85 55.95 39.35 46.6C40.6 44.1 41.75 42 41.9 42C42.1 42 44.05 42.4 46.25 42.85ZM7.69999 80.65C8.69999 84 9.84999 90.95 10.5 97C11.3 104.65 11.55 104 7.49999 104H3.99999V91V78H5.44999C6.79999 78 6.99999 78.25 7.69999 80.65ZM14.15 80.75C16.05 84.25 18.35 91.75 19.4 98.25L20.35 103.75L17.85 103.9C16.5 104 15.3 103.95 15.2 103.85C15.05 103.75 14.65 100.5 14.2 96.7C13.55 90.6 12.2 82.55 11.2 79.05C10.55 76.9 12.65 78.1 14.15 80.75ZM108.8 79.1C107.85 82.45 106.55 89.9 106.05 94.75C105.7 97.75 105.35 101.1 105.2 102.1L104.9 104H102.15C99.8 104 99.45 103.9 99.7 103.1C99.8 102.65 100.05 101.25 100.25 100C101.3 92.15 104.7 81.65 107.1 78.6C108 77.5 109.15 77.85 108.8 79.1ZM116 91V104H112.5C108.45 104 108.75 104.7 109.5 96.95C110.1 90.95 111.2 84.4 112.3 80.6C112.95 78.2 113.15 78 114.5 78H116V91Z"/>
</svg>
