<svg width="50" height="50" viewBox="0 0 50 50" fill="none" xmlns="http://www.w3.org/2000/svg">
<path d="M39.5833 10.4167H37.5V8.33333C37.5 7.7808 37.2805 7.25089 36.8898 6.86019C36.4991 6.46949 35.9692 6.25 35.4167 6.25H10.4167C9.86413 6.25 9.33423 6.46949 8.94353 6.86019C8.55283 7.25089 8.33333 7.7808 8.33333 8.33333V27.0833C8.33333 29.2935 9.21131 31.4131 10.7741 32.9759C12.3369 34.5387 14.4565 35.4167 16.6667 35.4167H29.1667C33.0375 35.4167 36.2729 32.7521 37.2042 29.1667H39.5833C41.2409 29.1667 42.8306 28.5082 44.0028 27.3361C45.1749 26.164 45.8333 24.5743 45.8333 22.9167V16.6667C45.8333 15.0091 45.1749 13.4194 44.0028 12.2472C42.8306 11.0751 41.2409 10.4167 39.5833 10.4167ZM41.6667 22.9167C41.6667 23.4692 41.4472 23.9991 41.0565 24.3898C40.6658 24.7805 40.1359 25 39.5833 25H37.5V14.5833H39.5833C40.1359 14.5833 40.6658 14.8028 41.0565 15.1935C41.4472 15.5842 41.6667 16.1141 41.6667 16.6667V22.9167ZM37.5 39.5833H6.25C6.25 43.0292 9.05417 45.8333 12.5 45.8333H35.4167C38.8625 45.8333 41.6667 43.0292 41.6667 39.5833H37.5Z" fill="#323232"/>
</svg>
