<?xml version="1.0" encoding="UTF-8"?>
<!DOCTYPE svg PUBLIC "-//W3C//DTD SVG 1.1//EN" "http://www.w3.org/Graphics/SVG/1.1/DTD/svg11.dtd">
<!-- Creator: CorelDRAW 2018 (64-Bit Оценочная версия) -->
<svg xmlns="http://www.w3.org/2000/svg" xml:space="preserve" width="16.808mm" height="15.968mm" version="1.1" style="shape-rendering:geometricPrecision; text-rendering:geometricPrecision; image-rendering:optimizeQuality; fill-rule:evenodd; clip-rule:evenodd"
viewBox="0 0 1680.8 1596.8"
 xmlns:xlink="http://www.w3.org/1999/xlink">
 <defs>
  <style type="text/css">
   <![CDATA[
    .str1 {stroke:#0F0E0D;stroke-width:67.73;stroke-miterlimit:22.9256}
    .str0 {stroke:#0F0E0D;stroke-width:20;stroke-miterlimit:22.9256}
    .fil1 {fill:none}
    .fil0 {fill:#2B2A29}
   ]]>
  </style>
   <clipPath id="id0">
    <rect x="89202.51" y="-31225.59" width="50799.98" height="105833.32"/>
   </clipPath>
 </defs>
 <g id="Слой_x0020_1">
  <metadata id="CorelCorpID_0Corel-Layer"/>
  <g style="clip-path:url(#id0)">
   <image id="услуги_x0020_-_x0020_декорирование_x0020_интерьера_x0020_.jpg" x="89202.51" y="-31225.59" width="50799.98" height="105833.32" xlink:href="значки консультация_Images\значки консультация_ImgID1.png"/>
  </g>
  <g id="_1335218835424">
   <ellipse class="fil0 str0" cx="287.57" cy="600.61" rx="107.89" ry="110.13"/>
   <ellipse class="fil0 str0" cx="1403.35" cy="593" rx="107.89" ry="110.13"/>
   <path class="fil1 str0" d="M544.38 453.39c-30.88,-34.41 -56.39,-56.04 -73.92,-86.97 -17.53,-30.93 -28.06,-68.72 -27.77,-97.03 0.29,-28.31 5.09,-57.49 16.88,-85.49 11.79,-28 29.62,-55.19 49.72,-77.44 20.1,-22.25 42.49,-39.59 67.73,-53.48 25.24,-13.89 56.17,-24.31 87.42,-29.8 31.25,-5.49 62.84,-6.06 96.87,-0.57 34.03,5.49 68.68,17.38 97.29,31.49 28.61,14.11 51.18,30.46 71.19,50.56 20.01,20.1 37.47,43.96 49.15,65.17 11.68,21.22 17.57,39.78 20.8,61.2 3.24,21.42 3.8,45.7 0.46,69.36 -3.34,23.67 -10.58,46.72 -20.27,68.2 -9.69,21.48 -21.82,41.38 -35.55,57.8 -13.73,16.43 -29.05,29.38 -44.55,39.51 -15.5,10.13 -31.16,17.43 -50.41,24.15 -19.25,6.72 -42.09,12.86 -65.14,16.58 -23.04,3.73 -46.31,5.06 -68.8,3.62 -22.49,-1.43 -44.21,-5.63 -64,-11.15 -19.79,-5.52 -37.65,-12.39 -55.51,-19.25l-50.27 66.14 -1.32 -92.6z"/>
   <path class="fil1 str0" d="M1008.73 293.97c129.91,12.5 206.42,113.27 203.72,204.4 -6.87,48.96 -24.92,78.46 -63.79,101.27l5.67 69.57c-223.03,6.39 -303.23,-60.25 -340.02,-167.47"/>
   <path class="fil0 str0" d="M1292.07 1145.4c0,-10.29 0.04,-31.31 0.24,-38.44 0.37,-13.3 -0.26,-27.4 -0.14,-46.17 0.34,-49.87 1.19,-51.33 0.46,-135.4 -0.39,-45.41 5.86,-86.08 29.11,-111.49 31.57,-34.49 65.18,-37.6 81.84,-37.1 21.51,0.65 58.87,3.71 85.47,37.68 23.68,30.24 20.35,102.99 20.35,113.08 0,26.83 0.34,55.79 0.34,96.91 0,76.47 0.61,59.48 -0.14,139.24 -0.28,29.87 -2.96,69.34 -11.13,101.08 -23.74,39.76 -33.09,35.89 -72.74,40.43 -9.83,1.13 -95.1,-2.65 -274.65,-2.65 0,0 -0.01,0.31 -0.01,0.31 -7.96,143.24 -0.23,4.44 -14.81,261.12 0,0.06 -1.34,19.47 -1.34,19.47 0,0 -21.8,0 -38.57,0 -11.39,0 -52.61,-0.01 -60.81,-0.01 0,0 -0.61,-12.65 -0.79,-16.32 -13.29,-270.91 -6.29,-121.32 -14.39,-254.55 -3.53,-58.2 -0.77,-118.38 -0.86,-138.12 -0.01,-1.97 -0.07,-5.82 0.07,-8.08 0.07,-1.15 1.06,-1.67 1.55,-1.67 40.78,0 68.33,-0.24 130.16,0.23 22.86,0.17 98.65,0.36 140.87,-1.05 0.07,0 -0.01,-3.1 -0.08,-18.5z"/>
   <line class="fil1 str1" x1="528.21" y1="1057.63" x2="1189.67" y2= "1057.63" />
   <line class="fil1 str1" x1="840.42" y1="1207.12" x2="840.42" y2= "1454.51" />
   <path class="fil1 str1" d="M46.65 992.81l0 248.71c9.49,79.99 25.02,114.52 69.53,154.41 17.22,15.42 36.23,31.92 95.17,41.39l208.99 0"/>
   <path class="fil1 str1" d="M1637.01 992.81l0 248.71c-9.49,79.99 -25.02,114.52 -69.53,154.41 -17.22,15.42 -36.23,31.92 -95.17,41.39l-208.99 0"/>
   <path class="fil0 str0" d="M401.67 1145.4c0,-10.29 -0.04,-31.31 -0.24,-38.44 -0.37,-13.3 0.26,-27.4 0.14,-46.17 -0.34,-49.87 -1.19,-51.33 -0.46,-135.4 0.39,-45.41 -5.86,-86.08 -29.11,-111.49 -31.57,-34.49 -65.18,-37.6 -81.84,-37.1 -21.51,0.65 -58.87,3.71 -85.47,37.68 -23.68,30.24 -20.35,102.99 -20.35,113.08 0,26.83 -0.34,55.79 -0.34,96.91 0,76.47 -0.61,59.48 0.14,139.24 0.28,29.87 2.96,69.34 11.13,101.08 23.74,39.76 33.09,35.89 72.74,40.43 9.83,1.13 95.1,-2.65 274.65,-2.65 0,0 0.01,0.31 0.01,0.31 7.96,143.24 0.23,4.44 14.81,261.12 0,0.06 1.34,19.47 1.34,19.47 0,0 21.8,0 38.57,0 11.39,0 52.61,-0.01 60.81,-0.01 0,0 0.61,-12.65 0.79,-16.32 13.29,-270.91 6.29,-121.32 14.39,-254.55 3.53,-58.2 0.77,-118.38 0.86,-138.12 0.01,-1.97 0.07,-5.82 -0.07,-8.08 -0.07,-1.15 -1.06,-1.67 -1.55,-1.67 -40.78,0 -68.33,-0.24 -130.16,0.23 -22.86,0.17 -98.65,0.36 -140.87,-1.05 -0.07,0 0.01,-3.1 0.08,-18.5z"/>
  </g>
 </g>
</svg>
