<?xml version="1.0" encoding="UTF-8"?>
<!DOCTYPE svg PUBLIC "-//W3C//DTD SVG 1.0//EN" "http://www.w3.org/TR/2001/REC-SVG-20010904/DTD/svg10.dtd">
<!-- Creator: CorelDRAW 2018 (64-Bit Оценочная версия) -->
<svg xmlns="http://www.w3.org/2000/svg" xml:space="preserve" width="14.7mm" height="14.7mm" version="1.0" style="shape-rendering:geometricPrecision; text-rendering:geometricPrecision; image-rendering:optimizeQuality; fill-rule:evenodd; clip-rule:evenodd"
viewBox="0 0 1470 1470"
 xmlns:xlink="http://www.w3.org/1999/xlink">
 <defs>
  <style type="text/css">
   <![CDATA[
    .str0 {stroke:#2B2A29;stroke-width:33.86;stroke-miterlimit:22.9256}
    .str1 {stroke:#2B2A29;stroke-width:67.73;stroke-miterlimit:22.9256}
    .fil0 {fill:none}
   ]]>
  </style>
   <clipPath id="id0">
    <rect x="104213.17" y="-50712.05" width="50799.98" height="105833.32"/>
   </clipPath>
 </defs>
 <g id="Слой_x0020_1">
  <metadata id="CorelCorpID_0Corel-Layer"/>
  <g style="clip-path:url(#id0)">
   <image id="услуги_x0020_-_x0020_декорирование_x0020_интерьера_x0020_.jpg" x="104213.17" y="-50712.05" width="50799.98" height="105833.32" xlink:href="значки сопровождение_Images\значки сопровождение_ImgID1.jpg"/>
  </g>
  <path class="fil0 str0" d="M-5576.23 -3731.63c-1.83,17.73 1.57,39.88 8.18,54.58 13.17,29.29 31.75,53.13 62.11,65.96 33.4,14.11 67.37,18.31 102.01,5.74 32.96,-11.96 54.17,-30.27 63.4,-64.87 11.49,-43.05 11.39,-70.18 6.75,-115.44 -3.34,-32.61 -19.4,-70.1 -43.36,-92.95 -24.35,-23.22 -53.04,-34.17 -85.99,-38.36 -20.21,-2.57 -52.13,-5.17 -74.26,-1.27 -39.28,6.91 -56.42,16.37 -78.44,38.53 -16.28,16.4 -29.12,33.88 -40.58,53.96 -8.78,15.4 -26.6,54.83 -31.74,75.41 -5.14,20.58 -8.03,52.52 -8.39,73.47 -0.36,20.95 1.16,32.7 4.46,51.81 3.3,19.11 8.46,38.96 17.28,56.97 8.82,18 21.31,34.17 38.21,49.97 16.91,15.8 38.23,31.24 60.64,41.53 22.42,10.28 45.93,15.43 70.92,18.37 24.99,2.94 51.51,4.82 76.44,2.94 44.01,-3.33 59.21,-1.39 97.68,-25.91 24.99,-15.93 38.29,-32.89 52.25,-47.95 13.96,-15.06 26.46,-30.51 38.22,-45.94 11.76,-15.43 22.78,-30.87 30.5,-49.61 13.78,-33.44 18.28,-75.64 17.64,-111.71 -0.37,-20.95 -1.84,-48.88 -6.99,-75.7 -8.79,-45.91 -30.29,-98.19 -58.06,-135.97 -27.82,-37.9 -83.67,-80.29 -127.51,-96.28 -42.9,-15.65 -83.78,-22.05 -129.36,-22.78 -50.27,-0.81 -89.07,8.26 -132.28,34.54 -18.74,11.39 -34.18,23.88 -51.45,41.16 -17.27,17.27 -36.33,39.35 -53.29,61.73 -56.36,74.39 -86.01,123.35 -95.52,240.72 -5.63,69.42 8.98,122.49 40.4,183.91 32.14,62.84 61.65,89.92 128.62,137.25 16.19,11.44 62.47,27.94 74.59,32.71 12.12,4.77 22.42,9.18 190.72,9.92 168.31,0.73 494.64,-2.21 657.8,-4.41 163.16,-2.21 163.16,-3.68 163.89,-4.04 0.74,-0.37 2.21,0.36 102.53,-105.84 100.32,-106.2 299.5,-319.34 397.98,-425.91 98.48,-106.57 96.28,-106.57 94.44,-106.93 -1.84,-0.37 -3.32,-1.11 -142.22,-2.58 -138.9,-1.47 -601.55,-4.29 -739.72,-5.39m-820.22 -11.14l522.15 -579.66c56.43,-19.75 99.24,-32.91 160.6,-23.75 40.96,6.11 72.47,16.25 104.55,33.26 33.59,17.8 76.5,48.72 98.66,79.55 30.98,43.12 41.47,57.07 54.76,89.48 15.05,36.71 19.89,66.67 21.68,108.59 1.54,36.08 -1.74,72.32 -8.09,107.86 -4.34,24.34 -9.87,42.73 -18.53,65.77l-516.49 581.19"/>
  <g id="_1938424856160">
   <ellipse class="fil0 str1" cx="1045.76" cy="896.79" rx="293.25" ry="297.66"/>
   <path class="fil0 str1" d="M598.17 319.11l-284.43 114.65 2.21 425.54c27.93,73.31 59.15,111.36 106.83,159.4 47.68,48.04 113.46,88.47 146.53,108.96 33.08,20.48 33.44,21.03 33.81,21.58"/>
   <line class="fil0 str1" x1="1237.9" y1="1133.01" x2="1432.49" y2= "1335.19" />
   <path class="fil0 str1" d="M1170.19 607.46l0 -392.46 -568.86 -171.98 -558.42 179.14 0 714.39c52.53,105.48 101.8,182.16 157.22,246.77 69.31,80.8 132.03,137.45 225.62,185.4 48.86,25.03 110.61,44.83 141.84,54.75 31.24,9.92 32.71,8.45 33.81,7.72 1.11,-0.74 1.84,-0.74 27.56,-10.29 25.73,-9.56 76.44,-28.67 120.9,-47.78 44.47,-19.11 82.69,-38.22 115.76,-59.53 33.08,-21.32 61,-44.83 80.84,-63.57 19.84,-18.74 39.46,-42.01 45.71,-48.62"/>
  </g>
 </g>
</svg>
