<?xml version="1.0" encoding="UTF-8"?>
<!DOCTYPE svg PUBLIC "-//W3C//DTD SVG 1.1//EN" "http://www.w3.org/Graphics/SVG/1.1/DTD/svg11.dtd">
<!-- Creator: CorelDRAW 2018 (64-Bit Оценочная версия) -->
<svg xmlns="http://www.w3.org/2000/svg" xml:space="preserve" width="17.3mm" height="11.4mm" version="1.1" style="shape-rendering:geometricPrecision; text-rendering:geometricPrecision; image-rendering:optimizeQuality; fill-rule:evenodd; clip-rule:evenodd"
viewBox="0 0 1730 1140"
 xmlns:xlink="http://www.w3.org/1999/xlink">
 <defs>
  <style type="text/css">
   <![CDATA[
    .str0 {stroke:#2B2A29;stroke-width:33.86;stroke-miterlimit:22.9256}
    .str1 {stroke:#2B2A29;stroke-width:33.87;stroke-miterlimit:22.9256}
    .fil0 {fill:none}
   ]]>
  </style>
   <clipPath id="id0">
    <rect x="89227.11" y="-31453.99" width="50799.98" height="105833.32"/>
   </clipPath>
 </defs>
 <g id="Слой_x0020_1">
  <metadata id="CorelCorpID_0Corel-Layer"/>
  <g style="clip-path:url(#id0)">
   <image id="услуги_x0020_-_x0020_декорирование_x0020_интерьера_x0020_.jpg" x="89227.11" y="-31453.99" width="50799.98" height="105833.32" xlink:href="значки замеры_Images\значки замеры_ImgID1.png"/>
  </g>
  <g id="_1300639984304">
   <rect class="fil0 str0" x="440.25" y="491.36" width="177.7" height="141.47"/>
   <ellipse class="fil0 str0" cx="534.07" cy="563.64" rx="238.13" ry="241.43"/>
   <ellipse class="fil0 str0" cx="530.08" cy="579.2" rx="347.94" ry="356.87"/>
   <path class="fil0 str1" d="M1038.1 383.81c-1.64,-3.27 -4.53,-6.5 -51.06,-58.31 -46.53,-51.82 -136.71,-152.21 -183.15,-203.58 -46.44,-51.37 -49.13,-53.7 -63.9,-58.11 -14.76,-4.42 -41.6,-10.9 -68.25,-15.91 -26.64,-5.01 -53.09,-8.54 -82.86,-9.86 -29.76,-1.33 -62.84,-0.44 -95.25,3.09 -32.41,3.52 -64.16,9.7 -91.72,17.64 -27.56,7.93 -50.94,17.64 -75.34,28.67 -24.39,11.03 -49.8,23.4 -76.52,42.37 -26.71,18.97 -54.72,44.54 -80.42,72.99 -25.69,28.44 -49.06,59.75 -68.14,88.81 -19.08,29.05 -33.85,55.85 -46.16,84.95 -12.31,29.09 -22.16,60.48 -27.97,91.61 -5.8,31.13 -7.56,62 -7.56,93.53 0,31.53 1.76,63.72 9.04,99.66 7.28,35.94 20.06,75.63 35.27,111.13 15.22,35.5 32.86,66.8 53,95.61 20.14,28.81 42.77,55.13 70.11,81.15 27.34,26.01 59.39,51.74 89.52,71.88 30.13,20.13 58.36,34.69 82.17,45.94 23.81,11.24 43.22,19.17 53.36,22.7 10.14,3.53 11.02,2.64 112.88,3.09 101.87,0.44 304.72,2.2 406.36,3.31 101.65,1.1 102.1,1.54 102.1,1.32 0,-0.22 -0.45,-1.11 0.64,-118.52 1.09,-117.41 3.71,-351.34 4.81,-469.96 1.11,-118.63 0.69,-121.93 -0.96,-125.2zm122.45 386.77l0.21 82.58m124.33 -83.1l0 108.24m141.53 -109.29l0.02 77.54m140.95 -78.37l-0.18 236.9m-531.04 -233.81l124.18 -0.69 124.54 -0.73 141.53 -0.84 284.17 -1.68 -0.66 236.98 -142.72 0.77 -533.42 2.89m676.14 -3.66l0.42 133.61m-920.54 -1031.32l92.88 -80.76 184.56 199.77 -91.14 87.94"/>
  </g>
 </g>
</svg>
