<svg width="100%" height="100%" viewBox="0 0 120 120" fill="currentColor" xmlns="http://www.w3.org/2000/svg">
    <path d="M84.05 0.649986C80.7 1.84999 80.3 3.04999 80 12.6L79.75 21.15L75.75 14.5C73.55 10.85 71.15 7.39999 70.4 6.84999C69.55 6.19999 68.25 5.84999 66.9 5.84999C64.6 5.79999 62.9 6.69999 44.65 17.35C36.25 22.2 35 23.45 35 26.6C35 27.25 36.7 30.8 38.8 34.45C40.9 38.1 42.5 41.15 42.4 41.3C42.25 41.4 39.15 39.8 35.45 37.75C28.45 33.85 27 33.45 24.45 34.75C22.7 35.7 21.45 37.55 12.9 52.2C3.69998 67.95 3.64998 67.6 16.8 75.05C20.8 77.35 24.15 79.35 24.3 79.6C24.45 79.8 20.1 80 14.65 80C5.74998 80 4.59998 80.1 3.14998 81C0.299984 82.7 0.249984 82.9 0.099984 99.45C-0.100016 116.05 -1.60222e-05 116.7 2.69998 118.65L4.24998 119.75L38.45 119.9C68.65 120 72.75 119.95 73.8 119.25C75.25 118.3 75.35 116.95 74.1 115.85C73.25 115.05 70.1 115 39.1 115H4.99998V100V85H19.6H34.15L38.95 87.7C41.6 89.15 50.15 94 58 98.45C65.85 102.9 72.75 106.65 73.4 106.8C74.9 107.2 76.1 106.15 75.9 104.55C75.7 102.95 76.25 103.25 39.5 82.3C24.25 73.55 11.55 66.25 11.3 66C11.05 65.75 12.2 63.25 14 60.15C21.7 46.9 26.6 39 27.15 39C27.5 39 32.35 41.65 38 44.9L48.25 50.75L59.5 69.9C73.7 93.95 73.9 94.2 75.6 94.4C76.65 94.55 77.1 94.3 77.55 93.35C78.2 91.95 78.2 92.05 74.25 85.25C69.15 76.6 54.3 51.15 47.2 38.9C43.25 32.1 40 26.35 40 26.1C40 25.75 60.65 13.7 65.45 11.25C67.55 10.2 66.95 9.44999 74.3 21.7L79.75 30.75L80 73.25C80.25 112.7 80.3 115.9 81.1 117.15C82.8 119.7 83.2 119.75 99.35 119.9C115.95 120.1 116.9 119.95 118.85 117.1C119.7 115.8 119.75 112.95 119.75 60C119.75 -1.65001 120 3.14999 116.65 0.949986C115.35 0.099986 114.05 -1.39946e-05 100.5 0.049986C90.4 0.049986 85.2 0.249986 84.05 0.649986ZM115 60V115L100.15 114.9L85.25 114.75L85.1 60.5C85.05 30.65 85.1 5.94999 85.25 5.59999C85.4 5.14999 88.9 4.99999 100.25 4.99999H115V60Z"/>
    <path d="M89 85.65C87.45 86.45 87.15 87.8 88.3 89.05C89.1 89.95 89.95 90 99.7 90C110.95 90 112.5 89.7 112.5 87.5C112.5 85.3 110.9 85 100.25 85C93.2 85 89.9 85.2 89 85.65Z"/>
</svg>
