<?xml version="1.0" encoding="UTF-8"?>
<!DOCTYPE svg PUBLIC "-//W3C//DTD SVG 1.0//EN" "http://www.w3.org/TR/2001/REC-SVG-20010904/DTD/svg10.dtd">
<!-- Creator: CorelDRAW 2018 (64-Bit Оценочная версия) -->
<svg xmlns="http://www.w3.org/2000/svg" xml:space="preserve" width="15.4mm" height="14.1mm" version="1.0" style="shape-rendering:geometricPrecision; text-rendering:geometricPrecision; image-rendering:optimizeQuality; fill-rule:evenodd; clip-rule:evenodd"
viewBox="0 0 1540 1410"
 xmlns:xlink="http://www.w3.org/1999/xlink">
 <defs>
  <style type="text/css">
   <![CDATA[
    .str6 {stroke:#2B2A29;stroke-width:33.86;stroke-miterlimit:22.9256}
    .str4 {stroke:#727271;stroke-width:33.87;stroke-miterlimit:22.9256}
    .str5 {stroke:#9D9E9E;stroke-width:8.46;stroke-miterlimit:22.9256}
    .str2 {stroke:#727271;stroke-width:42.33;stroke-miterlimit:22.9256}
    .str1 {stroke:#727271;stroke-width:16.93;stroke-miterlimit:22.9256}
    .str3 {stroke:#2B2A29;stroke-width:16.93;stroke-miterlimit:22.9256}
    .str0 {stroke:#2B2A29;stroke-width:20;stroke-miterlimit:22.9256}
    .fil2 {fill:none}
    .fil4 {fill:#9D9E9E}
    .fil1 {fill:#898989}
    .fil3 {fill:#727271}
    .fil0 {fill:#2B2A29}
   ]]>
  </style>
   <clipPath id="id0">
    <rect x="110638.68" y="-41006.31" width="50799.98" height="105833.32"/>
   </clipPath>
 </defs>
 <g id="Слой_x0020_1">
  <metadata id="CorelCorpID_0Corel-Layer"/>
  <g style="clip-path:url(#id0)">
   <image id="услуги_x0020_-_x0020_декорирование_x0020_интерьера_x0020_.jpg" x="110638.68" y="-41006.31" width="50799.98" height="105833.32" xlink:href="значок монтаж_Images\значок монтаж_ImgID1.jpg"/>
  </g>
  <path class="fil0 str0" d="M-3054.98 519.81c-1.35,-60.66 -1.06,-176.58 3.27,-243.8 4.33,-67.22 12.71,-85.74 21.75,-100.51 9.04,-14.77 18.74,-25.8 28.44,-34.17 9.7,-8.38 19.41,-14.12 33.3,-20.51 13.89,-6.4 31.97,-13.45 41.45,-16.76 9.48,-3.31 10.36,-2.87 215.41,-2.65 205.05,0.22 614.28,0.22 821.31,0 207.04,-0.22 211.89,-0.66 218.5,1.55 6.62,2.2 15,7.05 20.29,12.34 5.29,5.29 7.5,11.03 8.6,195.36 1.1,184.32 1.1,547.24 0.88,730.69 -0.22,183.44 -0.66,187.41 -3.09,195.13 -2.42,7.72 -6.83,19.18 -13.67,25.8 -6.83,6.61 -16.09,8.38 -236.58,9.26 -220.48,0.88 -652.2,0.88 -867.62,0.66 -215.41,-0.22 -214.52,-0.66 -220.04,-3.08 -5.51,-2.43 -17.41,-6.84 -30.2,-14.56 -12.79,-7.72 -26.46,-18.74 -37.93,-30.43 -11.46,-11.69 -20.72,-24.03 -30.86,-36.16 -10.14,-12.13 -21.17,-24.03 -28.01,-40.79 -6.83,-16.76 -9.47,-38.36 -10.8,-74.52 -1.32,-36.16 -1.32,-86.88 -1.1,-112.23 0.22,-25.36 0.66,-25.36 150.59,-26.02 149.93,-0.66 449.35,-1.98 599.06,-2.64 149.71,-0.66 149.71,-0.66 150.15,-1.1 0.44,-0.44 1.33,-1.33 2.87,-75.63 1.54,-74.31 3.75,-222.03 4.63,-299.42 0.88,-77.4 0.44,-84.45 -3.31,-90.84 -3.75,-6.4 -10.8,-12.13 -19.84,-15.88 -9.04,-3.75 -20.07,-5.51 -88.2,-6.39 -68.13,-0.89 -193.36,-0.89 -258.02,-0.71 -64.65,0.18 -68.73,0.54 -76.54,3.38 -7.8,2.84 -19.33,8.17 -28.3,17.94 -8.96,9.77 -15.36,24 -20.56,39.46 -5.2,15.46 -9.22,32.15 -13.13,47.97 -3.91,15.82 -7.73,30.77 -9.72,38.05 -1.98,7.27 -2.13,6.87 -48.07,6.68 -45.94,-0.2 -137.66,-0.2 -186.83,-0.17 -49.17,0.02 -55.8,0.08 -62.17,-0.55 -6.37,-0.64 -12.49,-1.97 -17.04,-5.33 -4.55,-3.36 -7.52,-8.76 -8.87,-69.42z"/>
  <rect class="fil1 str1" x="-2102.84" y="427.69" width="359.17" height="495.98"/>
  <rect class="fil1 str1" x="-2863.98" y="121.69" width="102.35" height="432.61"/>
  <ellipse class="fil2 str2" cx="-2548" cy="266.24" rx="114.76" ry="112.35"/>
  <rect class="fil1 str1" x="-1992.95" y="122.32" width="222.25" height="125.09"/>
  <rect class="fil3 str3" x="-1918.95" y="-5.6" width="68.79" height="84.67"/>
  <rect class="fil3 str3" x="-2874.11" y="-11.87" width="141.55" height="87.97"/>
  <line class="fil2 str4" x1="-2988.54" y1="957.18" x2="-2702.78" y2= "957.18" />
  <line class="fil2 str1" x1="-2856.29" y1="604.95" x2="-2856.29" y2= "875.16" />
  <line class="fil2 str5" x1="-2891.89" y1="695.51" x2="-2789.5" y2= "695.51" />
  <line class="fil2 str5" x1="-2892.07" y1="712.94" x2="-2774.11" y2= "712.94" />
  <rect class="fil4 str0" x="-1599.41" y="239.17" width="56.89" height="210.34"/>
  <line class="fil2 str5" x1="-2891.81" y1="678.98" x2="-2789.62" y2= "678.98" />
  <g id="_1938427778816">
   <g>
    <path class="fil2 str6" d="M169.82 27.04c0.55,-0.01 1.44,-0.01 87.77,-0.82 86.33,-0.82 258.1,-2.43 344.01,-3.24 85.92,-0.82 85.98,-0.84 86.02,-0.84 0.05,-0.01 0.1,-0.01 0.29,84.63 0.2,84.64 0.56,253.91 -0.82,348.47 -1.37,94.55 -4.46,114.37 -8.26,134.4 -3.8,20.03 -8.29,40.27 -15.13,61.33 -6.83,21.05 -16.01,42.93 -26.26,62.4 -10.24,19.47 -21.56,36.54 -34.72,53.78 -13.16,17.24 -28.15,34.66 -42.63,49.67 -14.47,15 -28.41,27.6 -46.81,41.35 -18.4,13.74 -41.24,28.65 -52.67,36.22 -11.42,7.57 -11.42,7.81 -11.78,14.63 -0.36,6.82 -1.07,20.21 5.28,38.41 6.35,18.2 19.76,41.2 30.81,65.73 11.06,24.53 19.74,50.6 22.86,108.43 3.13,57.82 0.69,147.41 -0.51,196.59 -1.2,49.18 -1.17,57.94 -1.21,62.3 -0.03,4.35 -0.14,4.28 -0.2,4.25 -0.05,-0.03 -0.05,-0.03 -56.94,0.06 -56.88,0.08 -170.66,0.24 -227.49,0.33 -56.83,0.08 -56.72,0.08 -56.72,0.08 0,0 -0.11,0 0.56,-226.36 0.67,-226.36 2.11,-679.08 2.94,-905.44 0.84,-226.36 1.06,-226.36 1.61,-226.36z"/>
    <path class="fil2 str6" d="M84.32 1018.18c22.94,-1.5 45.87,-2.99 57.89,-4.54 12.02,-1.55 13.13,-3.15 13.73,-5.16 0.61,-2.02 0.72,-4.44 1.07,-46.43 0.35,-42 0.94,-123.55 1.23,-164.44 0.3,-40.89 0.3,-41.11 0.29,-41.21 0,-0.11 0,-0.09 -14.37,-0.84 -14.36,-0.76 -43.08,-2.27 -61.85,-1.48 -18.77,0.78 -27.59,3.86 -35.06,8.81 -7.47,4.95 -13.58,11.75 -18.2,18.06 -4.62,6.3 -7.75,12.11 -10.08,19.7 -2.33,7.58 -3.88,16.96 -3.42,26.63 0.46,9.66 2.93,19.62 5.96,28.17 3.03,8.54 6.63,15.66 13.33,22.15 6.71,6.48 16.53,12.33 28.18,15.82 11.65,3.49 25.13,4.63 37.09,5.29 11.97,0.66 22.4,0.85 80.86,1.01 58.47,0.16 164.96,0.29 218.2,0.36 53.25,0.07 53.25,0.07 53.25,0.07 0,0 0,0 0,0 0,0 0,0 0,0 0,0 0,0 0,0"/>
    <line class="fil2 str6" x1="269.22" y1="26.11" x2="269.22" y2= "284.3" />
    <line class="fil2 str6" x1="482.2" y1="24.1" x2="482.2" y2= "251.23" />
    <line class="fil2 str6" x1="551.66" y1="23.45" x2="551.66" y2= "354.42" />
    <line class="fil2 str6" x1="267.22" y1="1169.68" x2="267.22" y2= "1385.04" />
    <line class="fil2 str6" x1="339.32" y1="1240.46" x2="339.32" y2= "1384.94" />
   </g>
   <g>
    <path class="fil2 str6" d="M1367.18 32.34c-0.55,-0.01 -1.44,-0.01 -87.77,-0.82 -86.33,-0.82 -258.1,-2.43 -344.01,-3.24 -85.92,-0.82 -85.98,-0.84 -86.02,-0.84 -0.05,-0.01 -0.1,-0.01 -0.29,84.63 -0.2,84.64 -0.56,253.91 0.82,348.47 1.37,94.55 4.46,114.37 8.26,134.4 3.8,20.03 8.29,40.27 15.13,61.33 6.83,21.05 16.01,42.93 26.26,62.4 10.24,19.47 21.56,36.54 34.72,53.78 13.16,17.24 28.15,34.66 42.63,49.67 14.47,15 28.41,27.6 46.81,41.35 18.4,13.74 41.24,28.65 52.67,36.22 11.42,7.57 11.42,7.81 11.78,14.63 0.36,6.82 1.07,20.21 -5.28,38.41 -6.35,18.2 -19.76,41.2 -30.81,65.73 -11.06,24.53 -19.74,50.6 -22.86,108.43 -3.13,57.82 -0.69,147.41 0.51,196.59 1.2,49.18 1.17,57.94 1.21,62.3 0.03,4.35 0.14,4.28 0.2,4.25 0.05,-0.03 0.05,-0.03 56.94,0.06 56.88,0.08 170.66,0.24 227.49,0.33 56.83,0.08 56.72,0.08 56.72,0.08 0,0 0.11,0 -0.56,-226.36 -0.67,-226.36 -2.11,-679.08 -2.94,-905.44 -0.84,-226.36 -1.06,-226.36 -1.61,-226.36z"/>
    <path class="fil2 str6" d="M1452.68 1023.48c-22.94,-1.5 -45.87,-2.99 -57.89,-4.54 -12.02,-1.55 -13.13,-3.15 -13.73,-5.16 -0.61,-2.02 -0.72,-4.44 -1.07,-46.43 -0.35,-42 -0.94,-123.55 -1.23,-164.44 -0.3,-40.89 -0.3,-41.11 -0.29,-41.21 0,-0.11 0,-0.09 14.37,-0.84 14.36,-0.76 43.08,-2.27 61.85,-1.48 18.77,0.78 27.59,3.86 35.06,8.81 7.47,4.95 13.58,11.75 18.2,18.06 4.62,6.3 7.75,12.11 10.08,19.7 2.33,7.58 3.88,16.96 3.42,26.63 -0.46,9.66 -2.93,19.62 -5.96,28.17 -3.03,8.54 -6.63,15.66 -13.33,22.15 -6.71,6.48 -16.53,12.33 -28.18,15.82 -11.65,3.49 -25.13,4.63 -37.09,5.29 -11.97,0.66 -22.4,0.85 -80.86,1.01 -58.47,0.16 -164.96,0.29 -218.2,0.36 -53.25,0.07 -53.25,0.07 -53.25,0.07 0,0 0,0 0,0 0,0 0,0 0,0 0,0 0,0 0,0"/>
    <line class="fil2 str6" x1="1267.78" y1="31.41" x2="1267.78" y2= "289.6" />
    <line class="fil2 str6" x1="1054.8" y1="29.4" x2="1054.8" y2= "256.53" />
    <line class="fil2 str6" x1="985.34" y1="28.75" x2="985.34" y2= "359.72" />
    <line class="fil2 str6" x1="1269.78" y1="1174.98" x2="1269.78" y2= "1390.34" />
    <line class="fil2 str6" x1="1197.68" y1="1245.76" x2="1197.68" y2= "1390.24" />
   </g>
  </g>
 </g>
</svg>
