<?xml version="1.0" ?><svg viewBox="0 0 512 512" width="50px" height="50px" xmlns="http://www.w3.org/2000/svg"><g id="Cup"><path d="M406.4344,213.0864a54.0747,54.0747,0,0,0-39.249-16.9619h-.14l-20.752.0545a10.0117,10.0117,0,0,0-1.2417-.0862H103.9423a10,10,0,0,0-9.8579,8.3213,222.0422,222.0422,0,0,0,48.5288,179.7285,10,10,0,0,0,7.665,3.5776l148.4365.001a10,10,0,0,0,7.6651-3.5776,220.9247,220.9247,0,0,0,30.3254-47.3792L397.9139,294.28a53.8863,53.8863,0,0,0,8.52-81.1934Zm-83.1909,77.7617a192.3737,192.3737,0,0,1-30.8,64.8838A8.5,8.5,0,1,1,278.7118,345.71,175.4658,175.4658,0,0,0,306.8,286.5356a8.5,8.5,0,0,1,16.4438,4.3125Zm77.7622-38.6835A33.7037,33.7037,0,0,1,386.51,277.85l-37.26,25.8617a221.6073,221.6073,0,0,0,8.8177-61.8392,224.34,224.34,0,0,0-1.4949-25.72l10.5256-.0277h.0933a33.8868,33.8868,0,0,1,33.8144,36.04Z"/><path d="M321.2606,423.0664H127.7333a10,10,0,0,1,0-20H321.2606a10,10,0,0,1,0,20Z"/><path d="M182.1361,164.7573a10,10,0,0,1-10-10c0-16.9009,5.875-26.0112,10.5962-33.3315,4.1362-6.4146,7.4038-11.4815,7.4038-22.4922a10,10,0,0,1,20,0c0,16.9-5.875,26.0107-10.5957,33.331-4.1367,6.4146-7.4043,11.4815-7.4043,22.4927A10,10,0,0,1,182.1361,164.7573Z"/><path d="M248.8573,164.7573a10,10,0,0,1-10-10c0-16.9009,5.875-26.0112,10.5962-33.3315,4.1362-6.4146,7.4038-11.4815,7.4038-22.4922a10,10,0,0,1,20,0c0,16.9-5.875,26.0107-10.5957,33.331-4.1367,6.4146-7.4043,11.4815-7.4043,22.4927A10,10,0,0,1,248.8573,164.7573Z"/></g></svg>