<svg width="30" height="30" viewBox="0 0 30 30" fill="none" xmlns="http://www.w3.org/2000/svg">
<path d="M26.1837 10.3812C26.1711 9.43447 25.9939 8.49717 25.66 7.6112C25.3704 6.86389 24.9282 6.18519 24.3615 5.61848C23.7947 5.05177 23.1161 4.60951 22.3687 4.31995C21.4942 3.99164 20.5702 3.81412 19.6362 3.79495C18.4337 3.7412 18.0525 3.7262 15 3.7262C11.9475 3.7262 11.5562 3.7262 10.3625 3.79495C9.42894 3.81426 8.50543 3.99178 7.63125 4.31995C6.88382 4.60931 6.20502 5.0515 5.63829 5.61824C5.07155 6.18497 4.62936 6.86377 4.34 7.6112C4.01104 8.48511 3.8339 9.40883 3.81625 10.3424C3.7625 11.5462 3.74625 11.9274 3.74625 14.9799C3.74625 18.0324 3.74625 18.4224 3.81625 19.6174C3.835 20.5524 4.01125 21.4749 4.34 22.3512C4.62984 23.0984 5.07237 23.7769 5.63929 24.3434C6.20622 24.9099 6.88508 25.3519 7.6325 25.6412C8.50429 25.9827 9.42796 26.1729 10.3637 26.2037C11.5675 26.2574 11.9487 26.2737 15.0012 26.2737C18.0537 26.2737 18.445 26.2737 19.6387 26.2037C20.5727 26.1853 21.4967 26.0082 22.3712 25.6799C23.1184 25.39 23.7969 24.9477 24.3635 24.381C24.9302 23.8143 25.3726 23.1358 25.6625 22.3887C25.9912 21.5137 26.1675 20.5912 26.1862 19.6549C26.24 18.4524 26.2562 18.0712 26.2562 15.0174C26.2537 11.9649 26.2537 11.5774 26.1837 10.3812V10.3812ZM14.9925 20.7524C11.8 20.7524 9.21374 18.1662 9.21374 14.9737C9.21374 11.7812 11.8 9.19495 14.9925 9.19495C16.5251 9.19495 17.995 9.80378 19.0787 10.8875C20.1624 11.9712 20.7712 13.4411 20.7712 14.9737C20.7712 16.5063 20.1624 17.9762 19.0787 19.0599C17.995 20.1436 16.5251 20.7524 14.9925 20.7524V20.7524ZM21.0012 10.3287C20.8242 10.3289 20.6489 10.2941 20.4854 10.2265C20.3218 10.1588 20.1732 10.0595 20.0481 9.93439C19.9229 9.80923 19.8236 9.66062 19.756 9.49706C19.6883 9.3335 19.6536 9.1582 19.6537 8.9812C19.6537 8.80432 19.6886 8.62918 19.7563 8.46577C19.824 8.30236 19.9232 8.15388 20.0482 8.02881C20.1733 7.90374 20.3218 7.80453 20.4852 7.73685C20.6486 7.66916 20.8237 7.63432 21.0006 7.63432C21.1775 7.63432 21.3526 7.66916 21.516 7.73685C21.6795 7.80453 21.8279 7.90374 21.953 8.02881C22.0781 8.15388 22.1773 8.30236 22.245 8.46577C22.3127 8.62918 22.3475 8.80432 22.3475 8.9812C22.3475 9.7262 21.745 10.3287 21.0012 10.3287Z" fill="#323232"/>
<path d="M14.9925 18.7275C17.0656 18.7275 18.7462 17.0469 18.7462 14.9737C18.7462 12.9006 17.0656 11.22 14.9925 11.22C12.9194 11.22 11.2387 12.9006 11.2387 14.9737C11.2387 17.0469 12.9194 18.7275 14.9925 18.7275Z" fill="#323232"/>
</svg>


