<svg width="95" height="90" viewBox="0 0 160 135" fill="none" xmlns="http://www.w3.org/2000/svg">
<g clip-path="url(#clip0_55_58)">
<rect x="48" y="1" width="63" height="133" stroke="#3187D5" stroke-width="2"/>
<path d="M19.5466 75V57.15H32.9466V75H30.7216V59.125H21.7966V75H19.5466ZM53.4077 66.05C53.4077 67.4333 53.2327 68.6917 52.8827 69.825C52.5327 70.9417 52.0077 71.9083 51.3077 72.725C50.6244 73.5417 49.7661 74.1667 48.7327 74.6C47.7161 75.0333 46.5327 75.25 45.1827 75.25C43.7827 75.25 42.5661 75.0333 41.5327 74.6C40.4994 74.15 39.6411 73.525 38.9577 72.725C38.2744 71.9083 37.7661 70.9333 37.4327 69.8C37.0994 68.6667 36.9327 67.4083 36.9327 66.025C36.9327 64.1917 37.2327 62.5917 37.8327 61.225C38.4327 59.8583 39.3411 58.7917 40.5577 58.025C41.7911 57.2583 43.3411 56.875 45.2077 56.875C46.9911 56.875 48.4911 57.2583 49.7077 58.025C50.9244 58.775 51.8411 59.8417 52.4577 61.225C53.0911 62.5917 53.4077 64.2 53.4077 66.05ZM39.3077 66.05C39.3077 67.55 39.5161 68.8417 39.9327 69.925C40.3494 71.0083 40.9911 71.8417 41.8577 72.425C42.7411 73.0083 43.8494 73.3 45.1827 73.3C46.5327 73.3 47.6327 73.0083 48.4827 72.425C49.3494 71.8417 49.9911 71.0083 50.4077 69.925C50.8244 68.8417 51.0327 67.55 51.0327 66.05C51.0327 63.8 50.5661 62.0417 49.6327 60.775C48.6994 59.4917 47.2244 58.85 45.2077 58.85C43.8577 58.85 42.7411 59.1417 41.8577 59.725C40.9911 60.2917 40.3494 61.1167 39.9327 62.2C39.5161 63.2667 39.3077 64.55 39.3077 66.05ZM69.7257 75H67.4757V59.125H61.8257C61.709 60.0417 61.584 61.0083 61.4507 62.025C61.3174 63.025 61.1757 64.0167 61.0257 65C60.8924 65.9833 60.759 66.9083 60.6257 67.775C60.4924 68.6417 60.359 69.4 60.2257 70.05C60.009 71.1667 59.7424 72.1167 59.4257 72.9C59.109 73.6833 58.684 74.275 58.1507 74.675C57.634 75.075 56.9507 75.275 56.1007 75.275C55.8174 75.275 55.5257 75.2417 55.2257 75.175C54.9424 75.125 54.6924 75.0583 54.4757 74.975V73.1C54.659 73.1833 54.8674 73.2583 55.1007 73.325C55.334 73.375 55.584 73.4 55.8507 73.4C56.3507 73.4 56.7424 73.2 57.0257 72.8C57.3257 72.3833 57.559 71.875 57.7257 71.275C57.8924 70.6583 58.034 70.05 58.1507 69.45C58.2507 68.9667 58.3674 68.325 58.5007 67.525C58.634 66.7083 58.7757 65.7583 58.9257 64.675C59.0924 63.5917 59.259 62.4167 59.4257 61.15C59.609 59.8667 59.784 58.5333 59.9507 57.15H69.7257V75ZM90.1509 66.05C90.1509 67.4333 89.9759 68.6917 89.6259 69.825C89.2759 70.9417 88.7509 71.9083 88.0509 72.725C87.3675 73.5417 86.5092 74.1667 85.4759 74.6C84.4592 75.0333 83.2759 75.25 81.9259 75.25C80.5259 75.25 79.3092 75.0333 78.2759 74.6C77.2425 74.15 76.3842 73.525 75.7009 72.725C75.0175 71.9083 74.5092 70.9333 74.1759 69.8C73.8425 68.6667 73.6759 67.4083 73.6759 66.025C73.6759 64.1917 73.9759 62.5917 74.5759 61.225C75.1759 59.8583 76.0842 58.7917 77.3009 58.025C78.5342 57.2583 80.0842 56.875 81.9509 56.875C83.7342 56.875 85.2342 57.2583 86.4509 58.025C87.6675 58.775 88.5842 59.8417 89.2009 61.225C89.8342 62.5917 90.1509 64.2 90.1509 66.05ZM76.0509 66.05C76.0509 67.55 76.2592 68.8417 76.6759 69.925C77.0925 71.0083 77.7342 71.8417 78.6009 72.425C79.4842 73.0083 80.5925 73.3 81.9259 73.3C83.2759 73.3 84.3759 73.0083 85.2259 72.425C86.0925 71.8417 86.7342 71.0083 87.1509 69.925C87.5675 68.8417 87.7759 67.55 87.7759 66.05C87.7759 63.8 87.3092 62.0417 86.3759 60.775C85.4425 59.4917 83.9675 58.85 81.9509 58.85C80.6009 58.85 79.4842 59.1417 78.6009 59.725C77.7342 60.2917 77.0925 61.1167 76.6759 62.2C76.2592 63.2667 76.0509 64.55 76.0509 66.05ZM99.0003 75H96.7503V59.125H91.1753V57.15H104.55V59.125H99.0003V75ZM120.892 75H118.642V66.675H109.492V75H107.242V57.15H109.492V64.7H118.642V57.15H120.892V75ZM141.347 66.05C141.347 67.4333 141.172 68.6917 140.822 69.825C140.472 70.9417 139.947 71.9083 139.247 72.725C138.564 73.5417 137.706 74.1667 136.672 74.6C135.656 75.0333 134.472 75.25 133.122 75.25C131.722 75.25 130.506 75.0333 129.472 74.6C128.439 74.15 127.581 73.525 126.897 72.725C126.214 71.9083 125.706 70.9333 125.372 69.8C125.039 68.6667 124.872 67.4083 124.872 66.025C124.872 64.1917 125.172 62.5917 125.772 61.225C126.372 59.8583 127.281 58.7917 128.497 58.025C129.731 57.2583 131.281 56.875 133.147 56.875C134.931 56.875 136.431 57.2583 137.647 58.025C138.864 58.775 139.781 59.8417 140.397 61.225C141.031 62.5917 141.347 64.2 141.347 66.05ZM127.247 66.05C127.247 67.55 127.456 68.8417 127.872 69.925C128.289 71.0083 128.931 71.8417 129.797 72.425C130.681 73.0083 131.789 73.3 133.122 73.3C134.472 73.3 135.572 73.0083 136.422 72.425C137.289 71.8417 137.931 71.0083 138.347 69.925C138.764 68.8417 138.972 67.55 138.972 66.05C138.972 63.8 138.506 62.0417 137.572 60.775C136.639 59.4917 135.164 58.85 133.147 58.85C131.797 58.85 130.681 59.1417 129.797 59.725C128.931 60.2917 128.289 61.1167 127.872 62.2C127.456 63.2667 127.247 64.55 127.247 66.05Z" fill="#323232"/>
</g>
<defs>
<clipPath id="clip0_55_58">
<rect width="160" height="135" fill="white"/>
</clipPath>
</defs>
</svg>

