<svg width="30" height="30" viewBox="0 0 30 30" fill="none" xmlns="http://www.w3.org/2000/svg">
<path d="M25.6087 21.4251L20.5275 16.8051C20.2873 16.5867 19.9717 16.4703 19.6472 16.4803C19.3228 16.4904 19.015 16.6261 18.7887 16.8588L15.7975 19.9351C15.0775 19.7976 13.63 19.3463 12.14 17.8601C10.65 16.3688 10.1987 14.9176 10.065 14.2026L13.1387 11.2101C13.3718 10.984 13.5077 10.6761 13.5177 10.3516C13.5277 10.027 13.4111 9.71136 13.1925 9.4713L8.57374 4.3913C8.35504 4.1505 8.05109 4.00443 7.72643 3.98413C7.40177 3.96382 7.08198 4.07088 6.83499 4.28255L4.12249 6.6088C3.90638 6.8257 3.77739 7.11437 3.75999 7.42005C3.74124 7.73255 3.38374 15.1351 9.12374 20.8776C14.1312 25.8838 20.4037 26.2501 22.1312 26.2501C22.3837 26.2501 22.5387 26.2426 22.58 26.2401C22.8856 26.2229 23.1741 26.0934 23.39 25.8763L25.715 23.1626C25.9275 22.9163 26.0353 22.5968 26.0155 22.2722C25.9956 21.9475 25.8497 21.6435 25.6087 21.4251V21.4251Z" fill="#323232"/>
</svg>
