<?xml version="1.0" encoding="UTF-8"?>
<!DOCTYPE svg PUBLIC "-//W3C//DTD SVG 1.0//EN" "http://www.w3.org/TR/2001/REC-SVG-20010904/DTD/svg10.dtd">
<!-- Creator: CorelDRAW 2018 (64-Bit Оценочная версия) -->
<svg xmlns="http://www.w3.org/2000/svg" xml:space="preserve" width="16mm" height="13.2mm" version="1.0" style="shape-rendering:geometricPrecision; text-rendering:geometricPrecision; image-rendering:optimizeQuality; fill-rule:evenodd; clip-rule:evenodd"
viewBox="0 0 1600 1320"
 xmlns:xlink="http://www.w3.org/1999/xlink">
 <defs>
  <style type="text/css">
   <![CDATA[
    .str4 {stroke:#727271;stroke-width:33.87;stroke-miterlimit:22.9256}
    .str5 {stroke:#9D9E9E;stroke-width:8.46;stroke-miterlimit:22.9256}
    .str2 {stroke:#727271;stroke-width:42.33;stroke-miterlimit:22.9256}
    .str1 {stroke:#727271;stroke-width:16.93;stroke-miterlimit:22.9256}
    .str3 {stroke:#2B2A29;stroke-width:16.93;stroke-miterlimit:22.9256}
    .str0 {stroke:#2B2A29;stroke-width:20;stroke-miterlimit:22.9256}
    .fil2 {fill:none}
    .fil4 {fill:#9D9E9E}
    .fil1 {fill:#898989}
    .fil3 {fill:#727271}
    .fil0 {fill:#2B2A29}
   ]]>
  </style>
   <clipPath id="id0">
    <rect x="63712.27" y="-42394.47" width="50799.98" height="105833.32"/>
   </clipPath>
 </defs>
 <g id="Слой_x0020_1">
  <metadata id="CorelCorpID_0Corel-Layer"/>
  <g style="clip-path:url(#id0)">
   <image id="услуги_x0020_-_x0020_декорирование_x0020_интерьера_x0020_.jpg" x="63712.27" y="-42394.47" width="50799.98" height="105833.32" xlink:href="значок пошив_Images\значок пошив_ImgID1.jpg"/>
  </g>
  <path class="fil0 str0" d="M75.95 543.6c-1.35,-60.66 -1.06,-176.58 3.27,-243.8 4.33,-67.22 12.71,-85.74 21.75,-100.51 9.04,-14.77 18.74,-25.8 28.44,-34.17 9.7,-8.38 19.41,-14.12 33.3,-20.51 13.89,-6.4 31.97,-13.45 41.45,-16.76 9.48,-3.31 10.36,-2.87 215.41,-2.65 205.05,0.22 614.28,0.22 821.31,0 207.04,-0.22 211.89,-0.66 218.5,1.55 6.62,2.2 15,7.05 20.29,12.34 5.29,5.29 7.5,11.03 8.6,195.36 1.1,184.32 1.1,547.24 0.88,730.69 -0.22,183.44 -0.66,187.41 -3.09,195.13 -2.42,7.72 -6.83,19.18 -13.67,25.8 -6.83,6.61 -16.09,8.38 -236.58,9.26 -220.48,0.88 -652.2,0.88 -867.62,0.66 -215.41,-0.22 -214.52,-0.66 -220.04,-3.08 -5.51,-2.43 -17.41,-6.84 -30.2,-14.56 -12.79,-7.72 -26.46,-18.74 -37.93,-30.43 -11.46,-11.69 -20.72,-24.03 -30.86,-36.16 -10.14,-12.13 -21.17,-24.03 -28.01,-40.79 -6.83,-16.76 -9.47,-38.36 -10.8,-74.52 -1.32,-36.16 -1.32,-86.88 -1.1,-112.23 0.22,-25.36 0.66,-25.36 150.59,-26.02 149.93,-0.66 449.35,-1.98 599.06,-2.64 149.71,-0.66 149.71,-0.66 150.15,-1.1 0.44,-0.44 1.33,-1.33 2.87,-75.63 1.54,-74.31 3.75,-222.03 4.63,-299.42 0.88,-77.4 0.44,-84.45 -3.31,-90.84 -3.75,-6.4 -10.8,-12.13 -19.84,-15.88 -9.04,-3.75 -20.07,-5.51 -88.2,-6.39 -68.13,-0.89 -193.36,-0.89 -258.02,-0.71 -64.65,0.18 -68.73,0.54 -76.54,3.38 -7.8,2.84 -19.33,8.17 -28.3,17.94 -8.96,9.77 -15.36,24 -20.56,39.46 -5.2,15.46 -9.22,32.15 -13.13,47.97 -3.91,15.82 -7.73,30.77 -9.72,38.05 -1.98,7.27 -2.13,6.87 -48.07,6.68 -45.94,-0.2 -137.66,-0.2 -186.83,-0.17 -49.17,0.02 -55.8,0.08 -62.17,-0.55 -6.37,-0.64 -12.49,-1.97 -17.04,-5.33 -4.55,-3.36 -7.52,-8.76 -8.87,-69.42z"/>
  <rect class="fil1 str1" x="1028.09" y="451.48" width="359.17" height="495.98"/>
  <rect class="fil1 str1" x="266.95" y="145.48" width="102.35" height="432.61"/>
  <ellipse class="fil2 str2" cx="582.93" cy="290.03" rx="114.76" ry="112.35"/>
  <rect class="fil1 str1" x="1137.97" y="146.12" width="222.25" height="125.09"/>
  <rect class="fil3 str3" x="1211.99" y="18.19" width="68.79" height="84.67"/>
  <rect class="fil3 str3" x="256.83" y="11.92" width="141.55" height="87.97"/>
  <line class="fil2 str4" x1="142.39" y1="980.97" x2="428.15" y2= "980.97" />
  <line class="fil2 str1" x1="274.64" y1="628.74" x2="274.64" y2= "898.95" />
  <line class="fil2 str5" x1="239.04" y1="719.3" x2="341.43" y2= "719.3" />
  <line class="fil2 str5" x1="238.86" y1="736.73" x2="356.82" y2= "736.73" />
  <rect class="fil4 str0" x="1531.51" y="262.96" width="56.89" height="210.34"/>
  <line class="fil2 str5" x1="239.12" y1="702.77" x2="341.31" y2= "702.77" />
 </g>
</svg>
